<svg id="Layer_1" data-name="Layer 1" xmlns="http://www.w3.org/2000/svg" xmlns:xlink="http://www.w3.org/1999/xlink" viewBox="0 0 1495.4 710"><defs><style>.cls-1{fill:none;}.cls-2{fill:#232323;}.cls-3{fill:#191919;}.cls-4{fill:url(#linear-gradient);}.cls-5{fill:#46565c;}.cls-6{fill:#fff;}.cls-7{clip-path:url(#clip-path);}.cls-8{fill:#d8d8d8;}.cls-9{fill:url(#radial-gradient);}.cls-10{fill:url(#radial-gradient-2);}.cls-11{fill:#f9b384;}.cls-12{fill:url(#linear-gradient-2);}.cls-13{fill:#375b9e;}.cls-14{opacity:0.31;fill:url(#linear-gradient-3);}.cls-14,.cls-23{isolation:isolate;}.cls-15{fill:#3f68b3;}.cls-16{fill:#16120f;}.cls-17{fill:#254a8f;}.cls-18{fill:#173068;}.cls-19{fill:#e6a57a;}.cls-20{fill:#bb9132;}.cls-21{fill:#fbc343;}.cls-22{fill:#1f3c88;}.cls-23{opacity:0.29;fill:url(#linear-gradient-4);}</style><linearGradient id="linear-gradient" x1="1156" y1="-2234.34" x2="1439.2" y2="-1951.14" gradientTransform="translate(0 2268.2)" gradientUnits="userSpaceOnUse"><stop offset="0" stop-color="#e0f6ff"/><stop offset="0.3" stop-color="#6ad2fc"/><stop offset="0.48" stop-color="#5ac8f5"/><stop offset="0.74" stop-color="#40b8e9"/><stop offset="0.94" stop-color="#1ca1d8"/><stop offset="1" stop-color="#139bd4"/></linearGradient><clipPath id="clip-path"><rect class="cls-1" x="1160.2" y="32.96" width="282.3" height="282.3"/></clipPath><radialGradient id="radial-gradient" cx="1150.48" cy="-2225.04" r="273.61" gradientTransform="translate(0 2268.2)" gradientUnits="userSpaceOnUse"><stop offset="0" stop-color="#70b5ff"/><stop offset="0.25" stop-color="#70b6ff" stop-opacity="0.94"/><stop offset="0.73" stop-color="#70baff" stop-opacity="0.79"/><stop offset="1" stop-color="#70bcff" stop-opacity="0.7"/></radialGradient><radialGradient id="radial-gradient-2" cx="1440.8" cy="-2450.42" r="273.12" gradientTransform="matrix(1, 0, 0, -1, 0, 712)" xlink:href="#radial-gradient"/><linearGradient id="linear-gradient-2" x1="1295.5" y1="-2703.23" x2="1262.87" y2="-2670.64" gradientTransform="translate(0 2932.2)" gradientUnits="userSpaceOnUse"><stop offset="0" stop-color="#f9b384"/><stop offset="0.09" stop-color="#f3af81"/><stop offset="0.22" stop-color="#e2a278"/><stop offset="0.37" stop-color="#c58e69"/><stop offset="0.53" stop-color="#9e7154"/><stop offset="0.7" stop-color="#6b4d39"/><stop offset="0.88" stop-color="#2e2118"/><stop offset="1"/></linearGradient><linearGradient id="linear-gradient-3" x1="1200" y1="-6347.03" x2="1200" y2="-6302.43" gradientTransform="matrix(1, 0, 0, -1, 0, -5973.94)" gradientUnits="userSpaceOnUse"><stop offset="0" stop-opacity="0"/><stop offset="1"/></linearGradient><linearGradient id="linear-gradient-4" x1="1144.12" y1="-6304.77" x2="1154.91" y2="-6304.77" gradientTransform="matrix(1, 0, 0, -1, 0, -5973.94)" gradientUnits="userSpaceOnUse"><stop offset="0" stop-color="#364f87" stop-opacity="0"/><stop offset="1"/></linearGradient></defs><rect class="cls-2" width="1495" height="710"/><polygon class="cls-3" points="0 618.83 1158.8 460.73 1158.8 206.41 1447.6 192.71 1495 205.81 1495 710 0 710 0 618.83"/><g id="Layer_2-2" data-name="Layer 2-2"><g id="Layer_1-2-2" data-name="Layer 1-2-2"><rect class="cls-4" x="1156" y="33.86" width="283.2" height="283.2"/><path class="cls-5" d="M1152.8,21.36v301.9H1449V21.36Zm275.4,277.2H1170.9V43.66h257.3v254.9Z"/><path class="cls-6" d="M1144.7,18.36v305.5h304.9V18.36Zm286.4,283.2H1167.9V40.76h263.2Z"/><g class="cls-7"><rect class="cls-8" x="1304.7" y="221.56" width="53.2" height="10.4"/><polygon class="cls-6" points="1356.2 213.76 1358 221.56 1304.7 221.56 1308 213.76 1356.2 213.76"/><rect class="cls-8" x="1239.3" y="248.26" width="66.3" height="12.2"/><polygon class="cls-6" points="1303.6 240.26 1305.6 248.26 1239.3 248.26 1242.6 240.26 1303.6 240.26"/><polygon class="cls-8" points="1160.2 298.86 1242.6 298.86 1242.9 282.76 1160.2 282.76 1160.2 298.86"/><polygon class="cls-6" points="1239.9 273.86 1242.9 282.76 1160.2 282.76 1162.6 274.16 1239.9 273.86"/><polygon class="cls-8" points="1065.9 340.76 1162.3 340.76 1163.2 322.66 1066.8 322.66 1065.9 340.76"/><polygon class="cls-6" points="1156.9 314.66 1163.2 322.66 1066.8 322.66 1074.5 314.66 1156.9 314.66"/><rect class="cls-8" x="1357.4" y="199.86" width="47.3" height="10.4"/><polygon class="cls-6" points="1399.9 194.76 1404.7 199.86 1357.4 199.86 1363 194.76 1399.9 194.76"/></g><rect class="cls-6" x="1098" y="18.36" width="14.3" height="305.8"/><polygon class="cls-9" points="1116.5 28.46 1116.5 314.66 1148.3 298.26 1149.5 36.86 1116.5 28.46"/><polygon class="cls-10" points="1476.4 28.46 1476.4 314.66 1444.5 298.26 1443.6 36.86 1476.4 28.46"/><path class="cls-6" d="M1112.3,18.36v305.8l43.7-22.6V32.36Zm34.8,275.7-25.6,13.1V32.66l25.6,8Z"/><polygon class="cls-6" points="1116.5 105.56 1151.9 106.16 1151.9 115.96 1118.6 118.06 1116.5 105.56"/><rect class="cls-6" x="1481.1" y="18.36" width="14.3" height="305.8"/><path class="cls-6" d="M1437.4,32.36v269.2l43.7,22.6V18.36Zm34.8,274.8-25.6-13.1V40.93l25.6-8Z"/><polygon class="cls-6" points="1479.3 105.56 1444.2 106.16 1444.2 115.96 1477.5 118.06 1479.3 105.56"/><path class="cls-11" d="M1208.7,128.16a.3.3,0,0,1,.3.28v0c.3,1.5,2.4,7.4,4.2,9.5a2.53,2.53,0,0,1,.6,2.1,8.56,8.56,0,0,0,0,3.9c.6,1.8,3,4.5,2.1,8s1.2,9.8.9,11,.9,5.4-6.5,5.1a.65.65,0,0,0-.6.6l-.9,5.9a.65.65,0,0,1-.6.6l-19.9.9a.65.65,0,0,1-.6-.6h0l-3-35.4v-.3C1184.9,138.26,1190.2,122.76,1208.7,128.16Z"/><path class="cls-12" d="M1280.1,242.06c-.3-.3,0-.6.3-.9,1.5-.9,5.9-4.5,6.8-7.1.9-3,0-9.5,2.1-12.5s4.8-7.4,5.4-10.1,3.9-.6.9,4.8v.3c0,.9-.3,1.5-.3,2.4a1.11,1.11,0,0,0,.3.9c.3,0,.6,0,.6-.3,4.5-5.1,13.4-14.3,15.2-12.8,1.5,1.5-5.1,9.5-8.3,13.4a.64.64,0,0,0,.9.9c.9-.3,1.5-.6,2.4-.9,4.2,0,6.2,10.4,3,13.7-2.7,2.7-18.4,15.8-21.4,18.4a.56.56,0,0,1-.78.12.34.34,0,0,1-.12-.12h0Z"/><path d="M1217.6,523.16l-.3,12.8c0,.3,0,.3.3.6a14.61,14.61,0,0,0,18.4-.9l.3-.3.3-1.8a.65.65,0,0,1,.6-.6h0c2.1.3,7.7,0,11-3.9a15.88,15.88,0,0,0,3.9-14.9,2.38,2.38,0,0,0-1.2-1.2c-1.8-.3-9.5-1.5-14.6,2.1-5.1,3.9-16.1,6.2-18.4,6.5A6.12,6.12,0,0,1,1217.6,523.16Z"/><path d="M1156.3,528.76l-.3,12.8c0,.3,0,.3.3.6a14.61,14.61,0,0,0,18.4-.9l.3-.3.3-1.8a.65.65,0,0,1,.6-.6h0c2.1.3,7.7,0,11-3.9a15.88,15.88,0,0,0,3.9-14.9,2.38,2.38,0,0,0-1.2-1.2c-1.8-.3-9.5-1.5-14.6,2.1s-16.1,6.2-18.4,6.5C1156.6,528.16,1156.6,528.46,1156.3,528.76Z"/><path class="cls-13" d="M1162,301.26c-.6,2.4-6.8,30.6-5.9,107.7h0c0,1.2-1.5,102.3.9,121.9a.65.65,0,0,0,.6.6c3,.6,11.9,2.7,20.5-7.4a.29.29,0,0,1,.28-.3h0c.6-5.9,16.1-132.7,20.2-163.6a.6.6,0,0,1,1.2,0c2.7,26.2,18.4,146.3,18.7,165.1a.65.65,0,0,0,.6.6c3.3.6,9.5,2.1,19-6.8v-.3c0-5.1,10.1-163.6,3.3-189.8-6.2-25-1.8-14.9-10.1-33.3,0-.3-.3-.3-.6-.3C1225.9,295,1173.3,290.56,1162,301.26Z"/><path class="cls-14" d="M1157.8,333.93l76.4-5.4c4.8-.3,6.8-.6,7.7,4.5l.9,6.2c.3.9.9,16.1.9,17.3l.3,16.1-88,.3.6-22.6Z"/><path class="cls-15" d="M1187,175.16h0c-.6,0-4.5,0-5.1,1.8l-2.4,4.5a.28.28,0,0,1-.28.3h0c-3,.6-26.5,4.8-30,6.8-13.7,7.7-40.2,67.2-33.3,73.8,11.6,10.7,39.3,14,44.3,14.3a16.18,16.18,0,0,0,2.1-.9l-3-22a3.71,3.71,0,0,1-1.8-.3c-2.1-.6-4.8-2.7-7.4-4.5a4.22,4.22,0,0,1-2.1-4.5c0-.3,0-.3.3-.6l3.9-9.2a.58.58,0,0,1,.7-.4.75.75,0,0,1,.2.1.3.3,0,0,1,.3.28v0c3,7.4,5.4,54.1-.3,108.6a2.47,2.47,0,0,0,1.2,3c8.6,5.1,43.7,14.9,89.2-2.4a5.09,5.09,0,0,0,1.8-6.8c-4.5-20.2-11-71.1-8.6-106.2l-3.9,14s.9,3.9.9,4.2c.3,2.1,6.5,33.9,12.2,38.4,16.7,13.4,22.6-8.3,49.7-34.8a2.35,2.35,0,0,0,0-3.3h-.3c-5.1-4.5-7.4-6.5-11.6-11.6a1.91,1.91,0,0,0-2.67-.32l0,0-.3.3-15.8,19a.56.56,0,0,1-.78.12.34.34,0,0,1-.12-.12l-.3-.3c-.9-8-5.7-47.3-14.6-60.1-2.4-3.3-19.3-8.3-22.3-9.5-5.9-2.7-12.2-4.8-14-11.3a2.28,2.28,0,0,0-2.1-1.5C1204.8,173.36,1190.2,174.26,1187,175.16Z"/><path class="cls-16" d="M1178.6,124.26c-.9.9-7.1,4.2-8.9,9.2,0,0-8.3,7.7,0,24.1,3,5.7,12.2,13.4,12.8,13.1,0,0,1.8,4.8,2.7,4.5,1.5-.3,16.7-.9,17.8-2.4.9-1.5,3.3-14.3,2.4-15.2-2.1-2.7-3.9-8.3-2.7-11.3a2.47,2.47,0,0,1,3-1.2.3.3,0,0,1,.3.28v0h0a.56.56,0,0,0,.78.12.34.34,0,0,0,.12-.12v-.3a33.78,33.78,0,0,1,.6-5.1c.3-.6,5.9-4.5,7.1-7.7,1.5-3.6,0-8,0-8.3-3.9-12.8-19.9-5.7-20.2-5.7C1190.8,118.36,1181,121.86,1178.6,124.26Z"/><path class="cls-17" d="M1179.2,181.06s33.6.6,42.2,2.7c0,0-7.4-6.8-10.7-10.7,0,0,0-.9-10.7.3C1184.9,175.46,1181.6,173.06,1179.2,181.06Z"/><path class="cls-11" d="M1373.7,188.56l-.9,2.7a2.79,2.79,0,0,0,3.77,1.16,2.63,2.63,0,0,0,.73-.56l.6-3Z"/><path d="M1372.9,191.16l-1.5,5.4c-.3,1.2.9,3,1.5,3h0c.9,0,2.7-.9,3-1.8l1.2-5.7C1374.9,193.26,1374,192.36,1372.9,191.16Z"/><path class="cls-11" d="M1384.5,187.66l.3,3h0c.6,1.5,3.6,2.7,4.5.6l-.6-4.2Z"/><path d="M1384.5,194.76a.8.8,0,0,0,.69.9H1394c0-.6-.3-.9-.6-1.5s-4.2-2.4-4.5-2.7c-.6.9-2.7.9-4.5-.6h0C1384.5,192.06,1384.5,193.56,1384.5,194.76Z"/><path class="cls-11" d="M1369,144.46c.9.9,3.9,2.4,5.4,2.1,1.2-.3.6-3.6.6-3.6l-4.5-1.2Z"/><path class="cls-16" d="M1386.5,116.26h0c-1.8,1.5-3.3-1.2-4.5-1.5-.9-.3-2.4.6-3.3,0,0,0-.6,3.6-.3,4.8-5.7-2.1-2.4-7.7-.9-7.1,1.2-3.9,4.8-2.1,6.2-1.5C1388,109.36,1388.6,114.76,1386.5,116.26Z"/><path class="cls-11" d="M1404.1,113.86c0-.6.3-1.5.3-2.1a4.2,4.2,0,0,1,.9-1.2,12.2,12.2,0,0,1,4.5-.9c.9,0,3-.3,3.9.6.6.9-.6,1.2-1.2,1.2a7,7,0,0,0-3.3.9,3.14,3.14,0,0,0-1.5,2.7Z"/><polygon class="cls-18" points="1391.9 142.16 1389.8 189.16 1383.9 189.16 1384.2 162.66 1378.5 189.46 1372.3 189.46 1377.3 140.96 1391.9 142.16"/><path class="cls-6" d="M1391.9,145.36c-.3,0-.3.3-.6.3a25.1,25.1,0,0,1-5.1,1.5,22.61,22.61,0,0,1-4.5.3,12.32,12.32,0,0,1-4.8-1.2v-1.5l1.5-19,10.1-.3Z"/><path class="cls-11" d="M1382.7,126.93h0a2,2,0,0,1-2.1-2v-.1h0l-.3-4.5h4.5l.3,4.5A2.39,2.39,0,0,1,1382.7,126.93Z"/><path class="cls-19" d="M1380.6,121.86c.9,1.5,2.4,3,4.5,0Z"/><path class="cls-11" d="M1385.9,119.56a2.72,2.72,0,0,1-1.2,2.4,3.83,3.83,0,0,1-5.36-.85l0,0v-.3c-1.5-2.1-1.2-6.2-1.2-6.2l3.3-1.5,3.6.3.6,1.5a9.49,9.49,0,0,1,.3,3Z"/><rect class="cls-20" x="1408.2" y="94.86" width="1.8" height="12.8"/><polygon class="cls-21" points="1412.7 97.16 1413.3 102.26 1409.1 99.86 1404.7 102.26 1405.3 98.66 1405.3 97.16 1402 93.66 1406.8 93.06 1409.1 88.56 1411.2 93.06 1412.4 93.06 1416.3 93.66 1412.7 97.16"/><path class="cls-21" d="M1413.3,108.76h-8.6v-.6l.6-3c0-.3.3-.6.9-.6h5.7c.3,0,.6.3.9.6Z"/><path class="cls-20" d="M1414.2,109.66h-10.1a1,1,0,0,1-.9-.9h0a1,1,0,0,1,.9-.9h10.1a1,1,0,0,1,.9.9h0A1,1,0,0,1,1414.2,109.66Z"/><path class="cls-21" d="M1401.7,87.36a5.47,5.47,0,0,1,1.5,1.2c.3.3.6.3.6.6.3.3.3.6.6.6v.3c-.3-.3-.6-.3-.9-.6s-.6-.3-.6-.6A3,3,0,0,1,1401.7,87.36Z"/><path class="cls-21" d="M1416.6,87.66c-.3.6-.9.9-1.2,1.5-.3.3-.6.3-.6.6-.3.3-.6.3-.9.6v-.3c.3-.3.3-.6.6-.6l.6-.6C1415.7,88.56,1416,88,1416.6,87.66Z"/><path class="cls-21" d="M1414.5,90.93c.3-.3.6-.6.9-.6s.3-.3.6-.3h.6v.3l-.3.3a.94.94,0,0,1-.6.3,1.11,1.11,0,0,1-.9.3Z"/><path class="cls-21" d="M1402,90.36v-.3h.6c.3,0,.3,0,.6.3s.6.3.9.6l-.6.3c-.3,0-.6-.3-.9-.3"/><path class="cls-22" d="M1385,124.26c4.2-.6,8.3-.9,12.5-1.5a2,2,0,0,0,1.5-1.2l4.5-8.6,5.1,1.2-3.9,9.8a8.13,8.13,0,0,1-5.7,5.1l-7.1,2.1s-.6,5.7,3.6,17c0,.9-3.9,2.1-7.1,1.8C1386.8,148.66,1386.2,145.36,1385,124.26Z"/><path class="cls-22" d="M1380.6,124.86a88.27,88.27,0,0,0-8.9.6,8.63,8.63,0,0,0-4.2,2.4,76.67,76.67,0,0,0-5.9,8,3.19,3.19,0,0,0,.3,3.6l6.2,6.8,3.9-4.2-4.5-5.1,5.1-6.2a1.36,1.36,0,0,1,1.5,0c.3.6.3,8.3-2.4,19.3,1.2.9,6.8,1.5,8.3.3C1380.3,150.46,1383,136.46,1380.6,124.86Z"/><path class="cls-16" d="M1386.5,116.26h0c-1.8,1.5-3.3-1.2-4.5-1.5-.9-.3-2.4.6-3.3,0a8.72,8.72,0,0,0-.3,4.8l-1.8-2.4-.3-2.7,1.8-1.5,3.3-1.2,3.6.6.6,2.1Z"/><path class="cls-11" d="M1378.5,117.76c-.9,0-1.5.3-1.5,1.2s.9,2.4,2.1,1.2Z"/></g></g><path class="cls-23" d="M1155.1,322.53s1.2,14,.6,23.5a157.09,157.09,0,0,1-15.8-3l7.4-27.4a4.06,4.06,0,0,0,2.1,3.3C1151.3,320.13,1154.5,322.23,1155.1,322.53Z"/></svg>