<svg id="Layer_1" data-name="Layer 1" xmlns="http://www.w3.org/2000/svg" viewBox="0 0 220 140"><defs><style>.cls-1{fill:#d4d4d4;}</style></defs><path class="cls-1" d="M157.52,70.91c1.95,5.77,5.37,9.73,10.93,9.73s9-4,10.94-9.73c1.7.13,2.89-1.8,3.67-4.34,1.19-3.87-.08-5.25-1.77-5.72v-.1h0s.7-5.63-.36-8.57A2.87,2.87,0,0,0,178.59,50c-1.75-3.24-6.09-4.22-8.39-4.75-11.38-2.64-11.52,4.49-11.52,4.49s-2.71-.62-3.08,2.51a57.89,57.89,0,0,0,0,8.49h0v.1c-1.69.47-3,1.85-1.78,5.72C154.63,69.11,155.81,71,157.52,70.91Z"/><path class="cls-1" d="M46.1,70.91c1.95,5.77,5.37,9.73,10.94,9.73s9-4,10.93-9.73c1.71.13,2.9-1.8,3.68-4.34,1.19-3.87-.09-5.25-1.78-5.72v-.1h0a57.89,57.89,0,0,0,0-8.49c-.37-3.13-3.08-2.51-3.08-2.51s-.14-7.13-11.52-4.49C53,45.8,48.64,46.78,46.9,50a2.85,2.85,0,0,0-2.35,2.17c-1.07,2.94-.36,8.57-.36,8.57h0v.1c-1.69.47-3,1.85-1.78,5.72C43.2,69.11,44.39,71,46.1,70.91Z"/><path class="cls-1" d="M127.61,78.26,119.2,107l-4-20.47,3.72-8.24H106.57l3.72,8.24-4,20.47L97.88,78.26,77.21,85.71c-1.47,3.58-6,32.76-6,32.76S92.23,123,112.75,123c27.41,0,41.58-4.54,41.58-4.54s-4.58-29.18-6.05-32.76Z"/><path class="cls-1" d="M68.29,118.78l.11-.75c.64-4,3.39-21.4,5.2-29.56l-5.64-2-6.18,21.09-2.94-15,2.73-6H52.51l2.72,6-2.94,15L46.12,86.44,30.93,91.91C29.85,94.54,26.49,116,26.49,116s10.4,3.35,30.55,3.35C60.84,119.32,64.68,119.1,68.29,118.78Z"/><path class="cls-1" d="M194.56,91.91l-15.18-5.47-6.18,21.09-2.94-15,2.73-6h-9.07l2.73,6-3,15-6.17-21.09-5.63,2c1.8,8.17,4.55,25.52,5.19,29.56l.12.75c3.6.32,7.43.54,11.24.54C188.59,119.32,199,116,199,116S195.64,94.54,194.56,91.91Z"/><path class="cls-1" d="M97.86,57.12c2.65,7.86,7.31,13.25,14.89,13.25S125,65,127.64,57.12c2.31.18,3.94-2.45,5-5.91,1.61-5.26-.11-7.13-2.43-7.79,0,0,0-.08,0-.13h0s1-7.65-.48-11.66c-.78-2.15-2.07-2.82-3.2-3-2.37-4.41-8.29-5.74-11.41-6.46-15.5-3.59-15.69,6.1-15.69,6.1h0s-3.69-.83-4.19,3.44a80.9,80.9,0,0,0,0,11.54h0a.62.62,0,0,1,0,.13c-2.31.66-4,2.53-2.42,7.79C93.92,54.67,95.54,57.3,97.86,57.12Z"/></svg>