<svg id="Layer_1" data-name="Layer 1" xmlns="http://www.w3.org/2000/svg" viewBox="0 0 273 214"><defs><style>.cls-1{fill:#d4d4d4;}</style></defs><path class="cls-1" d="M222.42,136.39,230.27,169H204.18l8.8-32.43a10.59,10.59,0,0,1,1.33-19.65V95L122.7,119.5,16.24,79.75,142.8,45.94,249.25,85.7l-28.5,7.61v23.61a10.58,10.58,0,0,1,1.67,19.47Z"/><path class="cls-1" d="M190.07,146.61C186.39,146.61,120,169,120,169c-8.38-3.68-67.07-25.31-67.07-25.31,0-35.74,14.15-37.49,14.15-37.49l57.17,20,57.11-14.46C190,116.31,190.07,146.12,190.07,146.61Z"/></svg>