<svg width="1112" height="813" viewBox="0 0 1112 813" fill="none" xmlns="http://www.w3.org/2000/svg">
<path opacity="0.07" d="M545.968 813C733.935 813 886.312 660.241 886.312 471.803C886.312 283.365 733.935 130.606 545.968 130.606C358.001 130.606 205.623 283.365 205.623 471.803C205.623 660.241 358.001 813 545.968 813Z" fill="white"/>
<path opacity="0.07" d="M548.006 752.08C702.517 752.08 827.772 626.825 827.772 472.314C827.772 317.804 702.517 192.549 548.006 192.549C393.496 192.549 268.24 317.804 268.24 472.314C268.24 626.825 393.496 752.08 548.006 752.08Z" fill="white"/>
<path opacity="0.07" d="M548.006 667.303C655.695 667.303 742.994 580.004 742.994 472.315C742.994 364.625 655.695 277.326 548.006 277.326C440.317 277.326 353.018 364.625 353.018 472.315C353.018 580.004 440.317 667.303 548.006 667.303Z" fill="white"/>
<path opacity="0.07" d="M981.546 260.636C1053.18 260.636 1111.25 202.42 1111.25 130.606C1111.25 58.7921 1053.18 0.575439 981.546 0.575439C909.912 0.575439 851.841 58.7921 851.841 130.606C851.841 202.42 909.912 260.636 981.546 260.636Z" fill="white"/>
<path opacity="0.07" d="M980.372 229.851C1036.56 229.851 1082.1 185.062 1082.1 129.813C1082.1 74.5639 1036.56 29.7756 980.372 29.7756C924.186 29.7756 878.638 74.5639 878.638 129.813C878.638 185.062 924.186 229.851 980.372 229.851Z" fill="white"/>
<path opacity="0.07" d="M980.372 195.94C1017.83 195.94 1048.19 166.334 1048.19 129.813C1048.19 93.2926 1017.83 63.6868 980.372 63.6868C942.914 63.6868 912.549 93.2926 912.549 129.813C912.549 166.334 942.914 195.94 980.372 195.94Z" fill="white"/>
<path opacity="0.07" d="M100.381 412.97C155.63 412.97 200.418 368.182 200.418 312.933C200.418 257.684 155.63 212.895 100.381 212.895C45.1314 212.895 0.34314 257.684 0.34314 312.933C0.34314 368.182 45.1314 412.97 100.381 412.97Z" fill="white"/>
<path opacity="0.07" d="M100.381 392.623C144.393 392.623 180.072 356.945 180.072 312.933C180.072 268.921 144.393 233.242 100.381 233.242C56.3686 233.242 20.6898 268.921 20.6898 312.933C20.6898 356.945 56.3686 392.623 100.381 392.623Z" fill="white"/>
<path opacity="0.07" d="M100.381 368.886C131.283 368.886 156.334 343.835 156.334 312.933C156.334 282.031 131.283 256.979 100.381 256.979C69.4785 256.979 44.4275 282.031 44.4275 312.933C44.4275 343.835 69.4785 368.886 100.381 368.886Z" fill="white"/>
<path d="M339.138 415.443C339.972 414.613 341.086 414.127 342.26 414.082C342.736 414.004 343.223 414.044 343.679 414.197C344.136 414.349 344.549 414.61 344.883 414.958L351.503 421.485C351.803 421.776 352.041 422.126 352.204 422.511C352.366 422.897 352.45 423.312 352.45 423.731C352.45 424.149 352.366 424.564 352.204 424.95C352.041 425.336 351.803 425.685 351.503 425.977C350.896 426.572 350.08 426.906 349.231 426.906C348.382 426.906 347.567 426.572 346.96 425.977L343.65 422.705C342.96 421.944 342.202 421.247 341.386 420.624C340.684 420.139 340.153 419.826 340.153 419.826C339.743 419.662 339.379 419.401 339.092 419.066C338.804 418.731 338.602 418.331 338.502 417.9C338.403 417.47 338.408 417.021 338.519 416.594C338.63 416.166 338.842 415.771 339.138 415.443Z" fill="#D7C3FD"/>
<path d="M337.561 428.339C339.044 428.731 339.809 428.151 340.012 426.774C340.178 425.984 340.086 425.161 339.752 424.426C339.418 423.691 338.858 423.082 338.154 422.689C337.15 422.283 336.102 421.994 335.032 421.828C333.9 421.663 332.757 421.589 331.613 421.609L337.561 428.339Z" fill="#D7C3FD"/>
<path d="M353.252 419.434L359.855 425.977V417.008L357.763 414.943C357.157 414.347 356.341 414.013 355.492 414.013C354.643 414.013 353.827 414.347 353.22 414.943C352.923 415.236 352.687 415.587 352.527 415.974C352.366 416.361 352.285 416.776 352.288 417.195C352.291 417.614 352.378 418.028 352.543 418.413C352.709 418.797 352.95 419.145 353.252 419.434Z" fill="#D7C3FD"/>
<path d="M321.356 441.815C320.751 441.026 320.456 440.043 320.525 439.051C320.594 438.059 321.023 437.127 321.731 436.431C322.968 435.297 324.312 434.286 325.743 433.41C327.076 432.587 328.488 431.9 329.958 431.36C330.747 431.152 331.584 431.224 332.326 431.564C333.069 431.903 333.671 432.489 334.033 433.222C334.218 433.503 334.336 433.823 334.379 434.157C334.421 434.491 334.387 434.831 334.279 435.15C334.17 435.468 333.99 435.758 333.753 435.996C333.515 436.235 333.227 436.415 332.909 436.524C331.607 437.144 330.376 437.905 329.24 438.794C328.021 439.741 326.882 440.788 325.837 441.924C325.538 442.218 325.184 442.448 324.795 442.602C324.407 442.756 323.991 442.83 323.573 442.82C323.155 442.809 322.744 442.715 322.363 442.543C321.982 442.37 321.64 442.122 321.356 441.815Z" fill="#D7C3FD"/>
<path d="M332.347 449.171C332.938 448.558 333.269 447.738 333.269 446.886C333.269 446.033 332.938 445.213 332.347 444.6C332.056 444.3 331.708 444.061 331.323 443.898C330.938 443.735 330.525 443.651 330.107 443.651C329.689 443.651 329.275 443.735 328.891 443.898C328.506 444.061 328.157 444.3 327.866 444.6L323.386 449.171H332.347Z" fill="#D7C3FD"/>
<path d="M328.928 428.872C330.384 428.417 331.887 428.128 333.408 428.011C334.798 427.925 336.192 428.046 337.546 428.371V428.371L331.676 421.578C330.571 421.642 329.472 421.767 328.381 421.954C327.351 422.198 326.443 422.808 325.826 423.671C325.209 424.534 324.925 425.592 325.025 426.649C325.087 427.079 325.246 427.489 325.49 427.847C325.734 428.206 326.057 428.504 326.434 428.718C326.81 428.933 327.231 429.058 327.663 429.084C328.095 429.111 328.528 429.038 328.928 428.872V428.872Z" fill="#D7C3FD"/>
<path d="M321.356 468.751C320.754 468.146 320.416 467.327 320.416 466.473C320.416 465.619 320.754 464.801 321.356 464.196L327.866 457.576C328.157 457.275 328.505 457.036 328.89 456.873C329.275 456.71 329.689 456.626 330.106 456.626C330.524 456.626 330.938 456.71 331.323 456.873C331.707 457.036 332.056 457.275 332.347 457.576C332.941 458.184 333.274 459.001 333.274 459.853C333.274 460.704 332.941 461.522 332.347 462.13L325.837 468.751C325.546 469.051 325.197 469.29 324.812 469.453C324.428 469.616 324.014 469.7 323.596 469.7C323.178 469.7 322.765 469.616 322.38 469.453C321.995 469.29 321.647 469.051 321.356 468.751V468.751Z" fill="#D7C3FD"/>
<path d="M332.347 476.123C332.941 475.514 333.274 474.697 333.274 473.845C333.274 472.994 332.941 472.176 332.347 471.568C332.056 471.267 331.708 471.029 331.323 470.865C330.938 470.702 330.525 470.618 330.107 470.618C329.689 470.618 329.275 470.702 328.891 470.865C328.506 471.029 328.157 471.267 327.866 471.568L323.386 476.138L332.347 476.123Z" fill="#D7C3FD"/>
<path d="M325.836 455.823L332.347 449.187H323.401L321.356 451.316C320.761 451.927 320.428 452.747 320.428 453.601C320.428 454.455 320.761 455.275 321.356 455.886C321.651 456.182 322.003 456.416 322.39 456.574C322.777 456.732 323.191 456.81 323.609 456.804C324.027 456.799 324.44 456.709 324.822 456.54C325.205 456.372 325.55 456.128 325.836 455.823V455.823Z" fill="#D7C3FD"/>
<path d="M321.356 495.702C320.754 495.098 320.416 494.279 320.416 493.425C320.416 492.571 320.754 491.752 321.356 491.147L327.866 484.527C328.157 484.226 328.505 483.988 328.89 483.824C329.275 483.661 329.689 483.577 330.106 483.577C330.524 483.577 330.938 483.661 331.323 483.824C331.707 483.988 332.056 484.226 332.347 484.527C332.938 485.14 333.269 485.959 333.269 486.812C333.269 487.665 332.938 488.484 332.347 489.097L325.837 495.718C325.544 496.017 325.195 496.255 324.81 496.417C324.425 496.579 324.011 496.661 323.593 496.66C323.175 496.658 322.762 496.573 322.378 496.408C321.993 496.244 321.646 496.004 321.356 495.702Z" fill="#D7C3FD"/>
<path d="M332.347 503.058C332.941 502.45 333.274 501.633 333.274 500.781C333.274 499.93 332.941 499.112 332.347 498.504C332.056 498.203 331.708 497.964 331.323 497.801C330.938 497.638 330.525 497.554 330.107 497.554C329.689 497.554 329.275 497.638 328.891 497.801C328.506 497.964 328.157 498.203 327.866 498.504L323.386 503.058H332.347Z" fill="#D7C3FD"/>
<path d="M325.836 482.774L332.347 476.138H323.401L321.356 478.219C320.761 478.83 320.428 479.65 320.428 480.504C320.428 481.358 320.761 482.178 321.356 482.789C321.648 483.089 321.997 483.327 322.382 483.488C322.768 483.65 323.182 483.733 323.599 483.731C324.017 483.73 324.431 483.644 324.815 483.48C325.199 483.315 325.546 483.075 325.836 482.774Z" fill="#D7C3FD"/>
<path d="M321.356 522.638C320.754 522.034 320.416 521.215 320.416 520.361C320.416 519.507 320.754 518.688 321.356 518.084L327.866 511.463C328.157 511.162 328.505 510.924 328.89 510.76C329.275 510.597 329.689 510.513 330.106 510.513C330.524 510.513 330.938 510.597 331.323 510.76C331.707 510.924 332.056 511.162 332.347 511.463C332.941 512.071 333.274 512.889 333.274 513.74C333.274 514.592 332.941 515.409 332.347 516.018L325.837 522.638C325.546 522.939 325.197 523.178 324.812 523.341C324.428 523.504 324.014 523.588 323.596 523.588C323.178 523.588 322.765 523.504 322.38 523.341C321.995 523.178 321.647 522.939 321.356 522.638V522.638Z" fill="#D7C3FD"/>
<path d="M332.347 530.009C332.938 529.396 333.269 528.577 333.269 527.724C333.269 526.871 332.938 526.052 332.347 525.439C332.056 525.138 331.708 524.899 331.323 524.736C330.938 524.573 330.525 524.489 330.107 524.489C329.689 524.489 329.275 524.573 328.891 524.736C328.506 524.899 328.157 525.138 327.866 525.439L323.386 530.009H332.347Z" fill="#D7C3FD"/>
<path d="M325.837 509.71L332.347 503.089H323.386L321.34 505.187C320.743 505.793 320.407 506.611 320.407 507.464C320.407 508.316 320.743 509.135 321.34 509.741C321.634 510.042 321.985 510.281 322.372 510.442C322.759 510.604 323.175 510.686 323.595 510.683C324.015 510.68 324.43 510.593 324.815 510.425C325.2 510.258 325.547 510.015 325.837 509.71Z" fill="#D7C3FD"/>
<path d="M316.875 544.065C316.532 542.421 317.422 541.576 318.936 541.451C320.343 541.295 321.733 541.012 323.089 540.606C324.495 540.063 325.848 539.392 327.133 538.602C327.473 538.337 327.87 538.153 328.292 538.065C328.714 537.976 329.151 537.985 329.569 538.09C329.987 538.196 330.376 538.395 330.706 538.674C331.036 538.953 331.298 539.303 331.473 539.698C331.855 540.687 331.861 541.782 331.489 542.775C331.118 543.768 330.395 544.589 329.459 545.082L327.898 545.724C326.847 546.187 325.747 546.528 324.619 546.741C323.074 547.038 321.508 547.211 319.935 547.258C319.141 547.148 318.407 546.774 317.852 546.194C317.296 545.615 316.952 544.865 316.875 544.065V544.065Z" fill="#D7C3FD"/>
<path d="M317.016 557.134C318.055 557.315 319.126 557.112 320.027 556.562C320.929 556.013 321.601 555.153 321.918 554.144C322.027 553.727 322.04 553.29 321.955 552.867C321.871 552.444 321.692 552.046 321.432 551.702C321.172 551.358 320.838 551.078 320.454 550.883C320.07 550.688 319.647 550.583 319.217 550.576C318.155 550.512 317.106 550.312 316.095 549.981C315.14 549.695 314.201 549.355 313.284 548.964L317.016 557.134Z" fill="#D7C3FD"/>
<path d="M325.509 536.474C326.781 535.526 327.976 534.48 329.084 533.343L332.347 530.025H323.401L321.356 532.107C321.055 532.418 320.816 532.785 320.653 533.187C320.486 533.448 320.375 533.741 320.325 534.048C320.308 534.371 320.367 534.694 320.497 534.99C320.627 535.287 320.825 535.548 321.075 535.754C321.619 536.366 322.357 536.772 323.164 536.903C323.972 537.035 324.8 536.883 325.509 536.474V536.474Z" fill="#D7C3FD"/>
<path d="M294.847 548.807C295.629 548.104 296.624 547.685 297.672 547.617C298.102 547.6 298.53 547.672 298.93 547.828C299.33 547.984 299.694 548.222 299.999 548.525L303.308 551.796L305.588 554.05C305.917 554.394 306.266 554.718 306.634 555.021C306.978 555.28 307.26 555.615 307.457 555.999C307.654 556.384 307.762 556.808 307.773 557.24C307.783 557.672 307.696 558.101 307.518 558.495C307.34 558.888 307.075 559.236 306.743 559.512C306.118 560.128 305.277 560.473 304.401 560.473C303.525 560.473 302.684 560.128 302.059 559.512L298.75 556.241C297.907 555.396 297.188 554.676 296.486 554.144L295.346 553.221C294.987 552.993 294.683 552.687 294.457 552.326C294.231 551.965 294.089 551.557 294.041 551.134C293.993 550.71 294.04 550.281 294.18 549.879C294.319 549.476 294.547 549.11 294.847 548.807V548.807Z" fill="#D7C3FD"/>
<path d="M290.912 561.265C291.187 561.429 291.494 561.529 291.812 561.558C292.13 561.588 292.45 561.545 292.75 561.434C293.049 561.323 293.32 561.146 293.542 560.917C293.765 560.687 293.933 560.41 294.035 560.107C294.381 559.364 294.461 558.524 294.262 557.729C294.063 556.934 293.597 556.231 292.942 555.74C292.023 555.17 291.074 554.647 290.101 554.175C289.412 553.838 288.69 553.576 287.946 553.393L286.916 553.142L290.912 561.265Z" fill="#D7C3FD"/>
<path d="M308.242 552.798L309.382 553.722C310.238 554.392 311.178 554.95 312.176 555.381C313.702 556.159 315.317 556.748 316.985 557.134V557.134L313.253 548.979C312.454 548.596 311.691 548.14 310.974 547.618C310.731 547.407 310.44 547.261 310.126 547.193C309.812 547.125 309.487 547.136 309.179 547.226C308.873 547.295 308.585 547.428 308.334 547.617C308.084 547.806 307.877 548.046 307.727 548.322C307.289 549.015 307.101 549.837 307.195 550.651C307.289 551.466 307.658 552.224 308.242 552.798V552.798Z" fill="#D7C3FD"/>
<path d="M272.022 570.796C271.508 569.841 271.368 568.729 271.627 567.676C271.887 566.623 272.529 565.704 273.427 565.099C273.427 565.099 273.973 564.724 274.785 564.254C275.597 563.785 276.924 563.346 278.079 562.955C279.086 562.582 280.135 562.335 281.202 562.219L282.654 562.094C283.468 562.116 284.249 562.417 284.869 562.947C285.488 563.477 285.908 564.203 286.057 565.005C286.159 565.304 286.191 565.623 286.149 565.936C286.107 566.249 285.993 566.548 285.815 566.809C285.638 567.07 285.403 567.287 285.128 567.441C284.852 567.595 284.545 567.683 284.231 567.697L282.919 567.916C282.013 568.191 281.127 568.526 280.265 568.918C278.856 569.5 277.556 570.321 276.424 571.344C276.121 571.645 275.753 571.873 275.349 572.011C274.945 572.148 274.514 572.193 274.091 572.14C273.667 572.087 273.261 571.939 272.902 571.706C272.544 571.473 272.243 571.162 272.022 570.796V570.796Z" fill="#D7C3FD"/>
<path d="M283.278 577.308C283.647 576.808 283.859 576.208 283.887 575.587C283.829 575.274 283.699 574.979 283.507 574.726C283.314 574.473 283.064 574.269 282.778 574.131C282.128 573.643 281.334 573.387 280.522 573.404C279.71 573.421 278.927 573.71 278.298 574.225C277.593 575.014 276.932 575.839 276.315 576.698C275.626 577.606 275.06 578.6 274.629 579.656L283.278 577.308Z" fill="#D7C3FD"/>
<path d="M282.357 559.309C283.889 559.297 285.418 559.455 286.915 559.779C288.304 560.068 289.644 560.553 290.896 561.219V561.219L286.931 553.236L285.37 552.892L283.699 552.61C282.654 552.593 281.635 552.94 280.816 553.59C279.996 554.24 279.426 555.155 279.203 556.179C279.155 556.604 279.204 557.035 279.346 557.439C279.488 557.843 279.719 558.209 280.023 558.511C280.326 558.812 280.694 559.04 281.098 559.179C281.502 559.317 281.933 559.362 282.357 559.309Z" fill="#D7C3FD"/>
<path d="M289.148 597.514C288.142 597.817 287.059 597.741 286.105 597.3C285.15 596.859 284.389 596.083 283.965 595.119C283.366 593.517 282.947 591.853 282.716 590.157C282.52 589.074 282.457 587.97 282.529 586.871C282.529 586.01 282.638 585.446 282.638 585.446C282.797 584.647 283.222 583.925 283.843 583.399C284.464 582.873 285.244 582.574 286.057 582.551C286.369 582.5 286.688 582.526 286.988 582.627C287.287 582.728 287.557 582.9 287.775 583.13C288.016 583.335 288.205 583.596 288.325 583.891C288.444 584.185 288.491 584.504 288.462 584.82C288.41 586.232 288.583 587.643 288.977 588.999C289.234 590.026 289.557 591.035 289.945 592.02L290.6 593.288C290.832 593.65 290.979 594.06 291.03 594.487C291.081 594.913 291.035 595.346 290.895 595.753C290.755 596.16 290.526 596.529 290.223 596.834C289.921 597.139 289.553 597.371 289.148 597.514V597.514Z" fill="#D7C3FD"/>
<path d="M298.125 588.06C297.968 587.757 297.738 587.498 297.457 587.306C297.175 587.114 296.851 586.995 296.512 586.959C296.173 586.923 295.831 586.972 295.516 587.102C295.201 587.231 294.923 587.437 294.706 587.7C294.077 588.223 293.645 588.947 293.484 589.75C293.322 590.553 293.439 591.387 293.816 592.114C294.396 592.988 295.043 593.815 295.752 594.587C296.299 595.197 296.892 595.823 297.313 596.277L298.078 597.029L298.125 588.06Z" fill="#D7C3FD"/>
<path d="M279.89 585.352C280.182 583.847 280.589 582.366 281.108 580.923C281.5 580.012 281.981 579.142 282.544 578.325C282.997 577.73 283.278 577.308 283.278 577.308L274.66 579.655C274.66 579.655 273.473 582.707 273.505 582.785C273.28 583.827 273.429 584.915 273.926 585.857C274.423 586.799 275.236 587.535 276.221 587.935C276.635 588.061 277.071 588.092 277.498 588.024C277.925 587.956 278.331 587.791 278.685 587.542C279.039 587.293 279.331 586.966 279.54 586.587C279.749 586.207 279.868 585.785 279.89 585.352V585.352Z" fill="#D7C3FD"/>
<path d="M317.672 599.063C317.069 599.666 316.252 600.005 315.4 600.005C314.548 600.005 313.732 599.666 313.129 599.063L306.509 592.537C306.212 592.245 305.975 591.897 305.814 591.512C305.653 591.128 305.57 590.715 305.57 590.298C305.57 589.881 305.653 589.469 305.814 589.084C305.975 588.7 306.212 588.352 306.509 588.06C307.117 587.46 307.935 587.124 308.788 587.124C309.641 587.124 310.46 587.46 311.068 588.06L317.672 594.587C317.969 594.878 318.205 595.226 318.367 595.611C318.528 595.995 318.611 596.408 318.611 596.825C318.611 597.242 318.528 597.655 318.367 598.039C318.205 598.423 317.969 598.771 317.672 599.063V599.063Z" fill="#D7C3FD"/>
<path d="M325.009 588.06C324.407 587.457 323.59 587.119 322.738 587.119C321.886 587.119 321.069 587.457 320.466 588.06C320.169 588.352 319.933 588.7 319.771 589.084C319.61 589.469 319.527 589.882 319.527 590.298C319.527 590.715 319.61 591.128 319.771 591.513C319.933 591.897 320.169 592.245 320.466 592.537L325.009 597.028V588.06Z" fill="#D7C3FD"/>
<path d="M304.761 594.587L298.157 588.061V597.044L300.249 599.095C300.852 599.698 301.668 600.037 302.52 600.037C303.372 600.037 304.189 599.698 304.792 599.095C305.092 598.801 305.33 598.449 305.491 598.061C305.653 597.672 305.735 597.255 305.732 596.834C305.729 596.414 305.641 595.998 305.474 595.612C305.308 595.225 305.065 594.877 304.761 594.587Z" fill="#D7C3FD"/>
<path d="M344.555 599.063C343.953 599.666 343.136 600.005 342.284 600.005C341.432 600.005 340.615 599.666 340.012 599.063L333.393 592.537C333.095 592.245 332.859 591.897 332.698 591.513C332.536 591.128 332.453 590.715 332.453 590.299C332.453 589.882 332.536 589.469 332.698 589.084C332.859 588.7 333.095 588.352 333.393 588.06C333.996 587.457 334.813 587.119 335.664 587.119C336.516 587.119 337.333 587.457 337.936 588.06L344.555 594.587C344.853 594.878 345.089 595.227 345.251 595.611C345.412 595.995 345.495 596.408 345.495 596.825C345.495 597.242 345.412 597.655 345.251 598.039C345.089 598.423 344.853 598.772 344.555 599.063V599.063Z" fill="#D7C3FD"/>
<path d="M351.893 588.06C351.29 587.457 350.473 587.119 349.622 587.119C348.77 587.119 347.953 587.457 347.35 588.06C347.053 588.352 346.816 588.7 346.655 589.084C346.494 589.469 346.411 589.882 346.411 590.298C346.411 590.715 346.494 591.128 346.655 591.513C346.816 591.897 347.053 592.245 347.35 592.537L351.909 597.028L351.893 588.06Z" fill="#D7C3FD"/>
<path d="M331.644 594.587L325.04 588.061V597.044L327.132 599.095C327.735 599.698 328.552 600.037 329.404 600.037C330.256 600.037 331.073 599.698 331.675 599.095C331.976 598.801 332.214 598.449 332.375 598.061C332.537 597.672 332.618 597.255 332.615 596.834C332.613 596.414 332.525 595.998 332.358 595.612C332.191 595.225 331.948 594.877 331.644 594.587Z" fill="#D7C3FD"/>
<path d="M371.424 599.063C370.821 599.666 370.004 600.005 369.153 600.005C368.301 600.005 367.484 599.666 366.881 599.063L360.308 592.537C360.011 592.245 359.775 591.897 359.613 591.513C359.452 591.128 359.369 590.715 359.369 590.299C359.369 589.882 359.452 589.469 359.613 589.084C359.775 588.7 360.011 588.352 360.308 588.06C360.911 587.457 361.728 587.119 362.58 587.119C363.432 587.119 364.249 587.457 364.852 588.06L371.455 594.587C371.751 594.881 371.985 595.23 372.143 595.616C372.302 596.001 372.382 596.415 372.379 596.832C372.376 597.249 372.29 597.661 372.126 598.044C371.962 598.427 371.724 598.774 371.424 599.063Z" fill="#D7C3FD"/>
<path d="M378.762 588.06C378.159 587.457 377.342 587.119 376.49 587.119C375.638 587.119 374.821 587.457 374.219 588.06C373.921 588.352 373.685 588.7 373.523 589.084C373.362 589.469 373.279 589.882 373.279 590.298C373.279 590.715 373.362 591.128 373.523 591.513C373.685 591.897 373.921 592.245 374.219 592.537L378.762 597.028V588.06Z" fill="#D7C3FD"/>
<path d="M358.528 594.587L351.909 588.061V597.013L353.985 599.063C354.593 599.664 355.411 600 356.265 600C357.118 600 357.936 599.664 358.544 599.063C358.84 598.771 359.075 598.422 359.235 598.037C359.395 597.652 359.477 597.239 359.476 596.822C359.474 596.405 359.39 595.993 359.227 595.609C359.064 595.225 358.827 594.878 358.528 594.587V594.587Z" fill="#D7C3FD"/>
<path d="M398.308 599.063C397.705 599.666 396.888 600.005 396.037 600.005C395.185 600.005 394.368 599.666 393.765 599.063L387.161 592.537C386.864 592.245 386.628 591.897 386.466 591.512C386.305 591.128 386.222 590.715 386.222 590.298C386.222 589.881 386.305 589.469 386.466 589.084C386.628 588.7 386.864 588.352 387.161 588.06C387.769 587.46 388.588 587.124 389.441 587.124C390.294 587.124 391.112 587.46 391.72 588.06L398.324 594.587C398.62 594.879 398.855 595.228 399.015 595.613C399.175 595.998 399.257 596.411 399.256 596.828C399.254 597.245 399.17 597.658 399.007 598.041C398.844 598.425 398.607 598.773 398.308 599.063V599.063Z" fill="#D7C3FD"/>
<path d="M405.583 588.06C404.98 587.457 404.163 587.119 403.312 587.119C402.46 587.119 401.643 587.457 401.04 588.06C400.743 588.352 400.506 588.7 400.345 589.084C400.184 589.469 400.101 589.882 400.101 590.298C400.101 590.715 400.184 591.128 400.345 591.513C400.506 591.897 400.743 592.245 401.04 592.537L405.583 597.028V588.06Z" fill="#D7C3FD"/>
<path d="M385.397 594.587L378.793 588.061V597.044L380.885 599.095C381.488 599.698 382.305 600.037 383.156 600.037C384.008 600.037 384.825 599.698 385.428 599.095C385.728 598.801 385.966 598.449 386.128 598.061C386.289 597.672 386.371 597.255 386.368 596.834C386.365 596.414 386.278 595.998 386.111 595.612C385.944 595.225 385.701 594.877 385.397 594.587Z" fill="#D7C3FD"/>
<path d="M441.179 602.835C441.179 603.827 440.984 604.81 440.605 605.726C440.226 606.642 439.67 607.475 438.969 608.175C438.269 608.876 437.438 609.431 436.523 609.81C435.608 610.188 434.628 610.381 433.638 610.379H418.026C417.037 610.381 416.056 610.188 415.142 609.81C414.227 609.431 413.395 608.876 412.695 608.175C411.995 607.475 411.439 606.642 411.06 605.726C410.681 604.81 410.486 603.827 410.486 602.835V602.835C410.486 601.843 410.681 600.861 411.06 599.945C411.439 599.029 411.995 598.196 412.695 597.496C413.395 596.795 414.227 596.239 415.142 595.861C416.056 595.483 417.037 595.289 418.026 595.292H433.638C435.636 595.292 437.551 596.086 438.965 597.5C440.379 598.914 441.175 600.833 441.179 602.835V602.835Z" fill="#564F42"/>
<path d="M692.113 602.835C692.113 603.827 691.918 604.81 691.539 605.726C691.16 606.642 690.604 607.475 689.904 608.175C689.203 608.876 688.372 609.431 687.457 609.81C686.542 610.188 685.562 610.381 684.572 610.379H668.96C667.971 610.381 666.991 610.188 666.076 609.81C665.161 609.431 664.33 608.876 663.629 608.175C662.929 607.475 662.373 606.642 661.994 605.726C661.615 604.81 661.42 603.827 661.42 602.835V602.835C661.42 601.843 661.615 600.861 661.994 599.945C662.373 599.029 662.929 598.196 663.629 597.496C664.33 596.795 665.161 596.239 666.076 595.861C666.991 595.483 667.971 595.289 668.96 595.292H684.572C685.562 595.289 686.542 595.483 687.457 595.861C688.372 596.239 689.203 596.795 689.904 597.496C690.604 598.196 691.16 599.029 691.539 599.945C691.918 600.861 692.113 601.843 692.113 602.835V602.835Z" fill="#564F42"/>
<path d="M706.648 539.823C696.836 498.406 673.68 461.385 640.765 434.49L630.398 426.023V514.719C636.603 526.573 645.921 536.503 657.345 543.435C668.77 550.367 681.866 554.037 695.22 554.05H710.02L706.648 539.823Z" fill="#8BAAB7"/>
<path d="M473.184 425.178L461.787 434.475C428.876 461.377 405.726 498.403 395.919 539.823L392.563 554.05H407.363C421.114 554.03 434.582 550.13 446.225 542.795C457.868 535.46 467.216 524.987 473.199 512.574L473.184 425.178Z" fill="#8BAAB7"/>
<path d="M633.084 471.662V403.532H469.453V471.662C469.455 481.155 467.592 490.555 463.969 499.326C460.347 508.097 455.037 516.067 448.342 522.78C441.647 529.493 433.698 534.818 424.95 538.452C416.202 542.085 406.825 543.955 397.356 543.955H393.219C392.723 543.955 392.233 544.053 391.775 544.243C391.318 544.434 390.902 544.713 390.553 545.065C390.203 545.417 389.926 545.835 389.738 546.294C389.55 546.754 389.454 547.246 389.456 547.742V600.487C389.456 601.489 389.852 602.45 390.557 603.16C391.263 603.87 392.22 604.271 393.219 604.275H709.318C710.317 604.271 711.274 603.87 711.979 603.16C712.684 602.45 713.08 601.489 713.08 600.487V547.742C713.082 547.246 712.987 546.754 712.798 546.294C712.61 545.835 712.333 545.417 711.984 545.065C711.634 544.713 711.219 544.434 710.761 544.243C710.304 544.053 709.813 543.955 709.318 543.955H705.196C686.071 543.955 667.729 536.338 654.205 522.781C640.681 509.223 633.084 490.835 633.084 471.662V471.662Z" fill="#97C7FC"/>
<path d="M551.276 563.613C536.936 563.616 522.918 559.356 510.993 551.372C499.068 543.388 489.773 532.038 484.283 518.758C478.792 505.478 477.353 490.864 480.148 476.764C482.942 462.664 489.845 449.711 499.982 439.544C510.12 429.376 523.037 422.451 537.1 419.644C551.164 416.836 565.742 418.272 578.992 423.771C592.241 429.269 603.566 438.583 611.536 450.534C619.505 462.485 623.76 476.537 623.763 490.913C623.751 510.185 616.111 528.664 602.52 542.294C588.93 555.925 570.5 563.592 551.276 563.613V563.613Z" fill="white"/>
<path d="M588.761 509.773C593.361 507.644 598.526 507.068 603.48 508.132C608.435 509.196 612.911 511.842 616.238 515.673C615.02 519.069 613.5 522.348 611.695 525.471C609.318 521.275 606.016 517.68 602.041 514.959C598.066 512.239 593.524 510.464 588.761 509.773V509.773Z" fill="#D7C3FD"/>
<path d="M686.212 341.584C596.598 330.44 505.954 330.44 416.34 341.584C393.515 344.26 362.15 360.506 354.251 380.336C347.685 396.436 344.383 413.685 344.54 431.078C344.758 439.06 352.596 444.068 360.48 442.55C385.855 437.636 411.355 433.712 436.979 430.78C444.926 429.873 449.329 422.955 448.985 415.004C448.283 400.667 453.263 379.554 486.61 377.801C529.696 375.156 572.903 375.156 615.988 377.801C646.666 380.102 652.505 400.714 652.677 414.894C652.817 422.877 657.641 429.873 665.588 430.78C691.192 433.723 716.692 437.646 742.088 442.55C749.972 444.115 757.809 439.06 758.012 431.078C758.184 413.684 754.882 396.431 748.301 380.336C740.401 360.538 709.037 344.26 686.212 341.584Z" fill="#97C7FC"/>
<path d="M423.225 349.583L421.195 349.849C402.055 352.149 376.342 366.001 370.035 382.215C364.522 395.979 361.748 410.691 361.869 425.522C362.025 431.532 367.818 434.318 372.798 433.348C376.826 432.555 380.854 431.788 384.882 431.047C384.101 429.347 383.681 427.503 383.648 425.632C383.52 410.321 385.947 395.096 390.83 380.588C395.248 367.237 409.096 355.655 423.225 349.583Z" fill="white"/>
<path d="M671.552 418.713C672.192 397.787 666.322 367.408 629.54 364.09C577.976 360.3 526.206 360.258 474.636 363.965C434.622 366.375 429.798 397.506 431.453 418.744C431.826 423.137 431.245 427.558 429.751 431.704C432.155 431.406 434.559 431.109 436.964 430.843C444.91 429.935 449.313 423.017 448.969 415.066C448.267 400.73 453.247 379.616 486.595 377.863C529.68 375.218 572.887 375.218 615.973 377.863C646.65 380.164 652.489 400.777 652.661 414.957C652.802 422.939 657.626 429.935 665.572 430.843C668.351 431.156 671.115 431.484 673.878 431.829C672.178 427.673 671.385 423.201 671.552 418.713V418.713Z" fill="#8BAAB7"/>
<path d="M508.952 406.177C508.952 409.967 507.45 413.602 504.777 416.281C502.104 418.961 498.478 420.467 494.698 420.467V420.467C490.917 420.467 487.292 418.961 484.619 416.281C481.946 413.602 480.444 409.967 480.444 406.177V378.788C480.444 374.998 481.946 371.363 484.619 368.683C487.292 366.004 490.917 364.498 494.698 364.498V364.498C498.478 364.498 502.104 366.004 504.777 368.683C507.45 371.363 508.952 374.998 508.952 378.788V406.177Z" fill="#97C7FC"/>
<path d="M622.093 406.177C622.093 409.967 620.591 413.602 617.918 416.281C615.245 418.961 611.619 420.467 607.839 420.467C604.058 420.467 600.433 418.961 597.76 416.281C595.087 413.602 593.585 409.967 593.585 406.177V378.788C593.585 374.998 595.087 371.363 597.76 368.683C600.433 366.004 604.058 364.498 607.839 364.498V364.498C611.619 364.498 615.245 366.004 617.918 368.683C620.591 371.363 622.093 374.998 622.093 378.788V406.177Z" fill="#97C7FC"/>
<path d="M611.055 456.59C612.296 458.879 612.833 461.486 612.597 464.081C612.361 466.676 611.363 469.142 609.729 471.169C608.095 473.195 605.899 474.69 603.417 475.466C600.936 476.241 598.281 476.262 595.788 475.525C593.295 474.788 591.076 473.327 589.411 471.326C587.746 469.325 586.71 466.874 586.435 464.283C586.159 461.692 586.655 459.078 587.861 456.77C589.067 454.461 590.928 452.563 593.21 451.316C596.275 449.644 599.875 449.261 603.221 450.25C606.567 451.239 609.385 453.52 611.055 456.59ZM586.684 490.913C586.687 497.92 584.618 504.77 580.737 510.597C576.856 516.424 571.338 520.966 564.882 523.648C558.425 526.331 551.32 527.034 544.465 525.668C537.61 524.302 531.314 520.928 526.372 515.974C521.43 511.019 518.065 504.707 516.702 497.835C515.339 490.963 516.04 483.84 518.716 477.367C521.392 470.895 525.923 465.363 531.735 461.473C537.548 457.582 544.381 455.507 551.37 455.51C560.733 455.518 569.711 459.251 576.332 465.889C582.953 472.526 586.676 481.526 586.684 490.913V490.913ZM569.043 436.416C570.438 434.211 572.455 432.47 574.837 431.415C577.22 430.36 579.861 430.037 582.427 430.488C584.993 430.938 587.367 432.142 589.25 433.946C591.133 435.751 592.439 438.075 593.004 440.624C593.569 443.173 593.366 445.833 592.422 448.267C591.477 450.7 589.834 452.798 587.7 454.295C585.565 455.792 583.036 456.62 580.432 456.675C577.827 456.729 575.266 456.008 573.07 454.602C570.134 452.723 568.063 449.751 567.31 446.341C566.558 442.931 567.187 439.361 569.058 436.416H569.043ZM552.197 422.627C554.801 422.624 557.347 423.395 559.513 424.843C561.68 426.291 563.369 428.35 564.367 430.761C565.366 433.172 565.629 435.825 565.123 438.385C564.617 440.946 563.364 443.298 561.524 445.145C559.684 446.992 557.339 448.25 554.786 448.76C552.233 449.271 549.586 449.01 547.18 448.012C544.774 447.014 542.718 445.323 541.271 443.153C539.824 440.983 539.052 438.431 539.052 435.821C539.052 434.088 539.392 432.373 540.053 430.772C540.715 429.171 541.684 427.717 542.906 426.491C544.129 425.266 545.579 424.294 547.176 423.631C548.773 422.968 550.484 422.627 552.213 422.627H552.197ZM517.944 432.018C520.227 430.769 522.827 430.227 525.417 430.46C528.007 430.693 530.47 431.691 532.494 433.328C534.518 434.964 536.012 437.166 536.788 439.654C537.564 442.142 537.586 444.804 536.852 447.305C536.118 449.806 534.661 452.032 532.665 453.703C530.668 455.373 528.223 456.412 525.637 456.689C523.052 456.966 520.442 456.468 518.139 455.258C515.836 454.048 513.943 452.18 512.698 449.891C511.867 448.366 511.344 446.691 511.16 444.963C510.976 443.235 511.135 441.487 511.626 439.821C512.118 438.154 512.934 436.601 514.026 435.251C515.118 433.901 516.466 432.781 517.991 431.955L517.944 432.018ZM493.808 455.886C495.206 453.684 497.225 451.947 499.609 450.896C501.992 449.844 504.633 449.525 507.198 449.979C509.762 450.433 512.134 451.639 514.015 453.445C515.895 455.251 517.199 457.576 517.76 460.125C518.322 462.674 518.117 465.333 517.171 467.765C516.225 470.197 514.581 472.294 512.446 473.789C510.311 475.283 507.782 476.11 505.178 476.163C502.575 476.217 500.014 475.494 497.82 474.088C496.357 473.156 495.092 471.943 494.098 470.519C493.105 469.094 492.402 467.487 492.03 465.789C491.659 464.092 491.626 462.337 491.934 460.627C492.241 458.916 492.884 457.284 493.823 455.823L493.808 455.886ZM484.066 490.976C484.069 488.367 484.843 485.818 486.291 483.65C487.739 481.482 489.796 479.794 492.201 478.797C494.606 477.801 497.252 477.542 499.804 478.053C502.356 478.564 504.699 479.822 506.538 481.667C508.378 483.513 509.629 485.864 510.136 488.423C510.643 490.982 510.381 493.634 509.384 496.044C508.388 498.454 506.701 500.514 504.537 501.963C502.373 503.412 499.829 504.185 497.227 504.185C495.493 504.185 493.775 503.841 492.174 503.173C490.573 502.505 489.12 501.526 487.898 500.292C486.676 499.059 485.71 497.595 485.055 495.985C484.4 494.375 484.069 492.652 484.081 490.913L484.066 490.976ZM493.339 525.315C492.092 523.024 491.551 520.414 491.783 517.815C492.016 515.217 493.012 512.745 494.645 510.713C496.279 508.682 498.476 507.181 500.96 506.402C503.444 505.623 506.103 505.599 508.6 506.334C511.098 507.07 513.322 508.531 514.991 510.533C516.66 512.535 517.699 514.989 517.977 517.583C518.255 520.178 517.76 522.797 516.554 525.109C515.347 527.421 513.484 529.323 511.2 530.573C509.68 531.401 508.012 531.92 506.292 532.101C504.572 532.281 502.833 532.12 501.176 531.625C499.518 531.131 497.974 530.314 496.632 529.22C495.29 528.126 494.176 526.778 493.355 525.252L493.339 525.315ZM535.336 545.489C533.937 547.686 531.92 549.417 529.54 550.465C527.159 551.512 524.522 551.829 521.963 551.374C519.403 550.92 517.035 549.714 515.158 547.911C513.282 546.107 511.981 543.786 511.42 541.242C510.859 538.697 511.063 536.042 512.007 533.614C512.951 531.186 514.592 529.092 516.722 527.599C518.852 526.105 521.376 525.278 523.976 525.223C526.575 525.167 529.132 525.885 531.324 527.287C534.249 529.163 536.315 532.125 537.07 535.524C537.825 538.922 537.207 542.483 535.352 545.426L535.336 545.489ZM552.197 559.293C549.594 559.293 547.049 558.52 544.885 557.07C542.721 555.62 541.034 553.559 540.038 551.148C539.042 548.738 538.781 546.085 539.289 543.525C539.797 540.966 541.05 538.615 542.891 536.77C544.731 534.925 547.076 533.668 549.629 533.159C552.182 532.65 554.829 532.911 557.234 533.91C559.638 534.908 561.694 536.599 563.14 538.769C564.586 540.939 565.358 543.49 565.358 546.099C565.362 547.833 565.025 549.55 564.366 551.152C563.708 552.755 562.74 554.211 561.519 555.438C560.298 556.665 558.847 557.639 557.25 558.303C555.654 558.967 553.942 559.309 552.213 559.309L552.197 559.293ZM586.45 549.918C584.166 551.173 581.563 551.72 578.969 551.49C576.375 551.26 573.907 550.265 571.878 548.628C569.849 546.992 568.349 544.79 567.569 542.299C566.79 539.808 566.764 537.141 567.497 534.636C568.229 532.131 569.686 529.9 571.684 528.225C573.682 526.551 576.13 525.508 578.719 525.229C581.308 524.95 583.922 525.447 586.229 526.657C588.536 527.868 590.433 529.737 591.68 532.029C593.345 535.098 593.73 538.704 592.75 542.056C591.77 545.409 589.505 548.236 586.45 549.918Z" fill="#8BAAB7"/>
<path d="M558.863 490.913C558.866 492.269 558.468 493.596 557.718 494.726C556.969 495.855 555.902 496.736 554.653 497.257C553.404 497.779 552.028 497.917 550.701 497.654C549.373 497.391 548.153 496.739 547.195 495.781C546.238 494.823 545.585 493.602 545.32 492.272C545.054 490.941 545.189 489.562 545.706 488.309C546.223 487.055 547.1 485.984 548.224 485.23C549.349 484.476 550.672 484.073 552.025 484.073C553.835 484.077 555.569 484.799 556.85 486.08C558.131 487.361 558.855 489.099 558.863 490.913V490.913Z" fill="#D7C3FD"/>
<path d="M137.08 268.789L110.183 337.017L89.6266 332.977L137.08 268.789Z" fill="#97C7FC"/>
<path d="M73.7679 318.285L72.796 298.971L137.08 268.789L73.7679 318.285Z" fill="#97C7FC"/>
<path d="M137.08 268.789L54.8615 333.051L82.0644 343.229L137.08 268.789Z" fill="#97C7FC"/>
<path d="M998.251 175.853C992.709 178.514 984.747 179.093 976.675 179.093C950.275 179.093 929.293 162.205 929.293 131.701C929.293 103.137 948.902 80.8342 980.032 80.8342C1007.35 80.8342 1024.89 98.9897 1024.89 121.402C1024.89 144.644 1011.38 155.835 995.941 155.835C987.635 155.835 984.404 152.705 982.561 148.557C980.779 150.891 978.47 152.767 975.824 154.032C973.178 155.298 970.27 155.915 967.339 155.835C957.894 155.835 951.556 149.574 951.556 137.053C951.556 120.056 960.767 104.921 973.413 104.921C977.909 104.921 981.937 106.487 983.436 110.008L984.357 106.299H1005.34L999.344 136.819C998.767 139.354 998.892 141.091 1000.91 141.091C1005.28 141.091 1011.16 135.316 1011.16 121.449C1011.16 105.375 1001.01 93.59 979.345 93.59C961.469 93.59 944.639 106.111 944.639 131.622C944.639 152.188 956.739 165.711 977.425 165.711C982.499 165.711 989.415 165.836 996.331 163.41L998.251 175.853ZM972.882 136.553C972.882 138.29 973.225 140.012 974.615 140.012C976.675 140.012 978.065 136.881 979.454 130.308C981.016 123.374 980.719 121.058 978.408 121.058C975.067 121.074 972.882 132.029 972.882 136.49V136.553Z" fill="#97C7FC"/>
<path d="M190.245 355.322L220.765 372.277" stroke="#97C7FC" stroke-opacity="0.5"/>
<path d="M817.599 267.317L878.639 206.113" stroke="#97C7FC" stroke-opacity="0.5"/>
<path d="M64.9565 344.453C38.2675 367.152 -7.10381 413.686 24.923 418.226C64.9565 423.901 124.118 378.502 124.118 418.226C124.118 457.951 35.0883 534.98 12.212 552.004" stroke="#97C7FC" stroke-width="0.25" stroke-dasharray="2 2"/>
</svg>
