<?xml version="1.0" encoding="utf-8"?>
<!-- Generator: Adobe Illustrator 25.2.0, SVG Export Plug-In . SVG Version: 6.00 Build 0)  -->
<svg version="1.1" id="Layer_1" xmlns="http://www.w3.org/2000/svg" xmlns:xlink="http://www.w3.org/1999/xlink" x="0px" y="0px"
	 viewBox="0 0 944.3 708.2" style="enable-background:new 0 0 944.3 708.2;" xml:space="preserve">
<style type="text/css">
	.st0{clip-path:url(#SVGID_2_);fill:#232323;}
	.st1{clip-path:url(#SVGID_2_);fill:#191919;}
	.st2{clip-path:url(#SVGID_2_);}
	.st3{fill:url(#SVGID_3_);}
	.st4{fill:#46565C;}
	.st5{fill:#FFFFFF;}
	.st6{clip-path:url(#SVGID_5_);}
	.st7{fill:#D8D8D8;}
	.st8{fill:url(#SVGID_6_);}
	.st9{fill:url(#SVGID_7_);}
	.st10{fill:#F9B384;}
	.st11{fill:url(#SVGID_8_);}
	.st12{fill:#375B9E;}
	.st13{opacity:0.31;fill:url(#SVGID_9_);enable-background:new    ;}
	.st14{fill:#3F68B3;}
	.st15{fill:#16120F;}
	.st16{fill:#254A8F;}
	.st17{fill:#173068;}
	.st18{fill:#E6A57A;}
	.st19{fill:#BB9132;}
	.st20{fill:#FBC343;}
	.st21{fill:#1F3C88;}
	.st22{opacity:0.29;clip-path:url(#SVGID_2_);fill:url(#SVGID_10_);enable-background:new    ;}
</style>
<g>
	<defs>
		<rect id="SVGID_1_" width="944.3" height="710"/>
	</defs>
	<clipPath id="SVGID_2_">
		<use xlink:href="#SVGID_1_"  style="overflow:visible;"/>
	</clipPath>
	<rect x="-545.1" y="-0.9" class="st0" width="1495" height="710"/>
	<polygon class="st1" points="-586,714.6 748.6,341.9 753.5,209.5 983.2,196.6 1030.5,209.6 1043.6,734.1 	"/>
	<g id="Layer_2_1_" class="st2">
		<g id="Layer_1-2">
			
				<linearGradient id="SVGID_3_" gradientUnits="userSpaceOnUse" x1="745.8434" y1="2531.1558" x2="915.7698" y2="2701.0891" gradientTransform="matrix(1 0 0 1 0 -2482)">
				<stop  offset="0" style="stop-color:#E0F6FF"/>
				<stop  offset="0.3" style="stop-color:#6AD2FC"/>
				<stop  offset="0.48" style="stop-color:#5AC8F5"/>
				<stop  offset="0.74" style="stop-color:#40B8E9"/>
				<stop  offset="0.94" style="stop-color:#1CA1D8"/>
				<stop  offset="1" style="stop-color:#139BD4"/>
			</linearGradient>
			<rect x="745.8" y="49.2" class="st3" width="169.9" height="169.9"/>
			<path class="st4" d="M743.9,41.7v181.2h177.8V41.7H743.9z M909.2,208H754.8V55h154.4V208z"/>
			<path class="st5" d="M739.1,39.9v183.3H922V39.9H739.1z M911,209.8H753V53.3h158V209.8z"/>
			<g>
				<defs>
					<rect id="SVGID_4_" x="748.3" y="48.6" width="169.4" height="169.4"/>
				</defs>
				<clipPath id="SVGID_5_">
					<use xlink:href="#SVGID_4_"  style="overflow:visible;"/>
				</clipPath>
				<g class="st6">
					<rect x="835.1" y="161.8" class="st7" width="31.9" height="6.2"/>
					<polygon class="st5" points="866,157.1 867,161.8 835.1,161.8 837,157.1 					"/>
					<rect x="795.8" y="177.9" class="st7" width="39.8" height="7.3"/>
					<polygon class="st5" points="834.4,173 835.6,177.9 795.8,177.9 797.8,173 					"/>
					<polygon class="st7" points="748.3,208.2 797.8,208.2 798,198.6 748.3,198.6 					"/>
					<polygon class="st5" points="796.2,193.2 798,198.6 748.3,198.6 749.8,193.4 					"/>
					<polygon class="st7" points="691.8,233.4 749.6,233.4 750.1,222.5 692.3,222.5 					"/>
					<polygon class="st5" points="746.4,217.7 750.1,222.5 692.3,222.5 696.9,217.7 					"/>
					<rect x="866.7" y="148.8" class="st7" width="28.4" height="6.2"/>
					<polygon class="st5" points="892.2,145.7 895.1,148.8 866.7,148.8 870.1,145.7 					"/>
				</g>
			</g>
			<rect x="711" y="39.9" class="st5" width="8.6" height="183.5"/>
			
				<radialGradient id="SVGID_6_" cx="742.5102" cy="2536.7451" r="164.2008" gradientTransform="matrix(1 0 0 1 0 -2482)" gradientUnits="userSpaceOnUse">
				<stop  offset="0" style="stop-color:#70B5FF"/>
				<stop  offset="0.25" style="stop-color:#70B6FF;stop-opacity:0.94"/>
				<stop  offset="0.73" style="stop-color:#70BAFF;stop-opacity:0.79"/>
				<stop  offset="1" style="stop-color:#70BCFF;stop-opacity:0.7"/>
			</radialGradient>
			<polygon class="st8" points="722.1,45.9 722.1,217.7 741.2,207.8 741.9,50.9 			"/>
			
				<radialGradient id="SVGID_7_" cx="916.7335" cy="1741.6886" r="163.9108" gradientTransform="matrix(1 0 0 1 0 -490)" gradientUnits="userSpaceOnUse">
				<stop  offset="0" style="stop-color:#70B5FF"/>
				<stop  offset="0.25" style="stop-color:#70B6FF;stop-opacity:0.94"/>
				<stop  offset="0.73" style="stop-color:#70BAFF;stop-opacity:0.79"/>
				<stop  offset="1" style="stop-color:#70BCFF;stop-opacity:0.7"/>
			</radialGradient>
			<polygon class="st9" points="938.1,45.9 938.1,217.7 919,207.8 918.4,50.9 			"/>
			<path class="st5" d="M719.6,39.9v183.5l26.2-13.6V48.3L719.6,39.9z M740.5,205.3l-15.4,7.9V48.4l15.4,4.8V205.3z"/>
			<polygon class="st5" points="722.1,92.2 743.3,92.5 743.3,98.4 723.3,99.7 			"/>
			<rect x="940.9" y="39.9" class="st5" width="8.6" height="183.5"/>
			<path class="st5" d="M914.7,48.3v161.5l26.2,13.6V39.9L914.7,48.3z M935.6,213.2l-15.4-7.9V53.4l15.4-4.8V213.2z"/>
			<polygon class="st5" points="939.9,92.2 918.8,92.5 918.8,98.4 938.8,99.7 			"/>
			<path class="st10" d="M777.4,105.7c0.1,0,0.2,0.1,0.2,0.2l0,0c0.2,0.9,1.4,4.5,2.5,5.7c0.3,0.3,0.4,0.8,0.4,1.2
				c-0.2,0.8-0.2,1.6,0,2.3c0.4,1.1,1.8,2.7,1.3,4.8c-0.5,2.1,0.7,5.9,0.5,6.6c-0.2,0.7,0.5,3.2-3.9,3c-0.2,0-0.3,0.2-0.4,0.4
				l-0.5,3.6c0,0.2-0.2,0.3-0.4,0.4l-12,0.5c-0.2,0-0.3-0.2-0.4-0.4l0,0l-1.8-21.2v-0.2C763.1,111.8,766.4,102.5,777.4,105.7z"/>
			
				<linearGradient id="SVGID_8_" gradientUnits="userSpaceOnUse" x1="829.4564" y1="1984.1713" x2="809.8853" y2="2003.7281" gradientTransform="matrix(1 0 0 1 0 -1818)">
				<stop  offset="0" style="stop-color:#F9B384"/>
				<stop  offset="9.000000e-02" style="stop-color:#F3AF81"/>
				<stop  offset="0.22" style="stop-color:#E2A278"/>
				<stop  offset="0.37" style="stop-color:#C58E69"/>
				<stop  offset="0.53" style="stop-color:#9E7154"/>
				<stop  offset="0.7" style="stop-color:#6B4D39"/>
				<stop  offset="0.88" style="stop-color:#2E2118"/>
				<stop  offset="1" style="stop-color:#000000"/>
			</linearGradient>
			<path class="st11" d="M820.3,174.1c-0.2-0.2,0-0.4,0.2-0.5c0.9-0.5,3.6-2.7,4.1-4.3c0.5-1.8,0-5.7,1.3-7.5
				c1.3-1.8,2.8-4.5,3.2-6.1c0.4-1.6,2.3-0.4,0.5,2.8v0.2c0,0.5-0.2,0.9-0.2,1.4c0,0.2,0,0.4,0.2,0.5c0.2,0,0.4,0,0.4-0.2
				c2.7-3,8-8.6,9.1-7.7c0.9,0.9-3,5.7-5,8c-0.1,0.1-0.2,0.3-0.1,0.5c0,0,0,0,0,0c0,0,0,0,0.1,0.1c0.1,0.1,0.3,0.2,0.5,0.1
				c0,0,0.1,0,0.1-0.1c0.5-0.2,0.9-0.4,1.4-0.5c2.5,0,3.7,6.2,1.8,8.2c-1.6,1.6-11.1,9.5-12.9,11.1c-0.1,0.1-0.3,0.2-0.5,0.1
				c0,0-0.1,0-0.1-0.1l0,0L820.3,174.1z"/>
			<path d="M782.8,342.8l-0.2,7.7c0,0.2,0,0.2,0.2,0.4c3.4,2.4,8,2.2,11.1-0.5l0.2-0.2l0.2-1.1c0-0.2,0.2-0.3,0.4-0.4l0,0
				c1.3,0.2,4.6,0,6.6-2.3c2.2-2.4,3.1-5.7,2.3-8.9c-0.1-0.3-0.4-0.6-0.7-0.7c-1.1-0.2-5.7-0.9-8.7,1.2c-3,2.3-9.6,3.7-11.1,3.9
				C782.9,342.2,782.9,342.5,782.8,342.8z"/>
			<path d="M746,346.2l-0.2,7.7c0,0.2,0,0.2,0.2,0.4c3.4,2.4,8,2.2,11.1-0.5l0.2-0.2l0.2-1.1c0-0.2,0.2-0.3,0.4-0.4l0,0
				c1.2,0.2,4.6,0,6.6-2.3c2.2-2.4,3.1-5.8,2.3-8.9c-0.1-0.3-0.4-0.6-0.7-0.7c-1.1-0.2-5.7-0.9-8.7,1.3c-3,2.1-9.6,3.8-11.1,3.9
				C746.2,345.8,746.2,346,746,346.2z"/>
			<path class="st12" d="M749.4,209.6c-0.4,1.4-4.1,18.4-3.6,64.6l0,0c0,0.7-0.9,61.4,0.5,73.2c0,0.2,0.2,0.3,0.4,0.4
				c1.8,0.4,7.1,1.6,12.3-4.5c0-0.1,0.1-0.2,0.2-0.2l0,0c0.4-3.6,9.6-79.6,12.1-98.2c0-0.2,0.2-0.3,0.4-0.4c0.2,0,0.3,0.2,0.4,0.4
				c1.6,15.7,11.1,87.8,11.2,99.1c0,0.2,0.2,0.3,0.4,0.4c2,0.4,5.7,1.2,11.4-4.1v-0.2c0-3,6.1-98.2,2-113.9c-3.7-15-1.1-8.9-6.1-20
				c0-0.2-0.2-0.2-0.4-0.2C787.8,205.9,756.2,203.2,749.4,209.6L749.4,209.6z"/>
			
				<linearGradient id="SVGID_9_" gradientUnits="userSpaceOnUse" x1="772.2453" y1="-3839.4209" x2="772.2453" y2="-3812.6636" gradientTransform="matrix(1 0 0 -1 0 -3586.6802)">
				<stop  offset="0" style="stop-color:#000000;stop-opacity:0"/>
				<stop  offset="1" style="stop-color:#000000"/>
			</linearGradient>
			<path class="st13" d="M746.9,229.3l45.9-3.2c2.8-0.2,4.1-0.4,4.6,2.7l0.5,3.7c0.2,0.5,0.5,9.6,0.5,10.4l0.2,9.6l-52.8,0.2
				l0.4-13.6L746.9,229.3z"/>
			<path class="st14" d="M764.4,133.9L764.4,133.9c-0.4,0-2.7,0-3,1.1l-1.4,2.7c0,0.1-0.1,0.2-0.2,0.2l0,0c-1.8,0.4-15.9,2.8-18,4.1
				c-8.2,4.6-24.1,40.3-20,44.3c7,6.4,23.6,8.4,26.6,8.6c0.4-0.2,0.8-0.3,1.2-0.5l-1.8-13.2c-0.4,0-0.7,0-1.1-0.2
				c-1.3-0.4-2.8-1.6-4.5-2.7c-0.9-0.5-1.4-1.6-1.2-2.7c0-0.2,0-0.2,0.2-0.4l2.3-5.5c0-0.2,0.2-0.3,0.4-0.2c0,0,0,0,0,0
				c0,0,0.1,0,0.1,0.1c0.1,0,0.2,0.1,0.2,0.2l0,0c1.8,4.5,3.2,32.5-0.2,65.1c-0.3,0.7,0.1,1.5,0.7,1.8c5.2,3,26.2,8.9,53.6-1.4
				c1.4-0.9,1.9-2.7,1.1-4.1c-2.7-12.1-6.6-42.7-5.2-63.7l-2.3,8.4c0,0,0.5,2.3,0.5,2.5c0.2,1.2,3.9,20.3,7.3,23
				c10,8,13.6-5,29.8-20.9c0.5-0.5,0.5-1.4,0-2h-0.2c-2.5-2.1-4.9-4.4-7-7c-0.4-0.5-1.1-0.6-1.6-0.2l0,0l-0.2,0.2l-9.5,11.4
				c-0.1,0.1-0.3,0.2-0.5,0.1c0,0,0,0-0.1-0.1l-0.2-0.2c-0.5-4.8-3.4-28.4-8.7-36.1c-1.4-2-11.6-5-13.4-5.7
				c-3.5-1.6-7.3-2.8-8.4-6.8c-0.2-0.5-0.7-0.9-1.3-0.9C775.1,132.9,766.4,133.4,764.4,133.9z"/>
			<path class="st15" d="M759.4,103.4c-0.5,0.5-4.3,2.5-5.4,5.5c0,0-5,4.6,0,14.5c1.8,3.4,7.3,8,7.7,7.9c0,0,1.1,2.8,1.6,2.7
				c0.9-0.2,10-0.5,10.7-1.4c0.5-0.9,2-8.6,1.4-9.1c-1.3-1.6-2.3-5-1.6-6.8c0.3-0.7,1.1-1,1.8-0.7c0.1,0,0.2,0.1,0.2,0.2l0,0l0,0
				c0.1,0.1,0.3,0.2,0.5,0.1c0,0,0,0,0,0c0,0,0,0,0.1-0.1v-0.2c0-1,0.2-2,0.4-3c0.2-0.4,3.5-2.7,4.3-4.6c0.9-2.1,0-4.8,0-5
				c-2.3-7.7-12-3.4-12.1-3.4C766.7,99.9,760.8,102,759.4,103.4z"/>
			<path class="st16" d="M759.8,137.5c0,0,20.2,0.4,25.3,1.6c0,0-4.5-4.1-6.4-6.4c0,0,0-0.5-6.4,0.2
				C763.1,134.1,761.2,132.7,759.8,137.5z"/>
			<path class="st10" d="M876.5,142l-0.5,1.6c0.4,0.8,1.4,1.1,2.2,0.7c0,0,0,0,0,0c0.2-0.1,0.3-0.2,0.4-0.3l0.4-1.8L876.5,142z"/>
			<path d="M876,143.6l-0.9,3.2c-0.2,0.7,0.5,1.8,0.9,1.8l0,0c0.7-0.1,1.4-0.5,1.8-1.1l0.7-3.4C877.2,144.8,876.7,144.3,876,143.6z"
				/>
			<path class="st10" d="M882.9,141.4l0.2,1.8l0,0c0.4,0.9,2.1,1.6,2.7,0.4l-0.4-2.5L882.9,141.4z"/>
			<path d="M882.9,145.7c0,0.3,0.1,0.5,0.4,0.5h5.3c0-0.4-0.2-0.5-0.4-0.9c-0.2-0.4-2.5-1.4-2.7-1.6c-0.4,0.5-1.6,0.5-2.7-0.4l0,0
				L882.9,145.7z"/>
			<path class="st10" d="M873.7,115.6c0.5,0.5,2.3,1.4,3.2,1.3c0.7-0.2,0.4-2.1,0.4-2.1l-2.7-0.7L873.7,115.6z"/>
			<path class="st15" d="M884.2,98.6L884.2,98.6c-1.1,0.9-2-0.7-2.7-0.9c-0.5-0.2-1.4,0.4-2,0c-0.2,0.9-0.2,1.9-0.2,2.8
				c-3.4-1.2-1.4-4.6-0.5-4.3c0.7-2.3,2.8-1.2,3.7-0.9C885.1,94.5,885.4,97.7,884.2,98.6z"/>
			<path class="st10" d="M894.7,97.2c0-0.4,0.2-0.9,0.2-1.3c0.1-0.3,0.3-0.5,0.5-0.7c0.8-0.3,1.8-0.5,2.7-0.5c0.5,0,1.8-0.2,2.3,0.4
				c0.4,0.5-0.4,0.7-0.7,0.7c-0.7,0-1.4,0.2-2,0.5c-0.6,0.3-0.9,1-0.9,1.6L894.7,97.2z"/>
			<polygon class="st17" points="887.4,114.1 886.1,142.3 882.6,142.3 882.7,126.5 879.4,142.5 875.6,142.5 878.6,113.4 			"/>
			<path class="st5" d="M887.4,116.1c-0.2,0-0.2,0.2-0.4,0.2c-1,0.4-2,0.7-3,0.9c-0.9,0.1-1.8,0.2-2.7,0.2c-1-0.1-1.9-0.3-2.8-0.7
				v-0.9l0.9-11.4l6.1-0.2L887.4,116.1z"/>
			<path class="st10" d="M881.8,105L881.8,105c-0.7,0-1.2-0.5-1.2-1.1v-0.1l0,0l-0.2-2.7h2.7l0.2,2.7
				C883.2,104.5,882.6,105,881.8,105z"/>
			<path class="st18" d="M880.6,102c0.5,0.9,1.4,1.8,2.7,0H880.6z"/>
			<path class="st10" d="M883.8,100.6c0,0.6-0.2,1.1-0.7,1.4c-1,0.7-2.5,0.5-3.2-0.5c0,0,0,0,0,0l0,0v-0.2c-0.9-1.2-0.7-3.7-0.7-3.7
				l2-0.9l2.1,0.2l0.4,0.9c0.2,0.6,0.2,1.2,0.2,1.8L883.8,100.6z"/>
			<rect x="897.2" y="85.7" class="st19" width="1.1" height="7.7"/>
			<polygon class="st20" points="899.9,87.2 900.2,90.2 897.7,88.8 895.1,90.2 895.4,88.1 895.4,87.2 893.5,85 896.3,84.7 897.7,82 
				899,84.7 899.7,84.7 902,85 			"/>
			<path class="st20" d="M900.2,94.1h-5.2v-0.3l0.4-1.8c0-0.2,0.2-0.4,0.5-0.4h3.4c0.2,0,0.4,0.2,0.5,0.4L900.2,94.1z"/>
			<path class="st19" d="M900.8,94.7h-6.1c-0.3,0-0.5-0.3-0.5-0.5l0,0c0-0.3,0.3-0.5,0.5-0.5h6.1c0.3,0,0.5,0.3,0.5,0.5l0,0
				C901.3,94.4,901.1,94.6,900.8,94.7z"/>
			<path class="st20" d="M893.3,81.3c0.3,0.2,0.6,0.4,0.9,0.7c0.2,0.2,0.4,0.2,0.4,0.4c0.2,0.2,0.2,0.4,0.4,0.4v0.2
				c-0.2-0.2-0.4-0.2-0.5-0.4c-0.2-0.2-0.4-0.2-0.4-0.4C893.7,82,893.4,81.6,893.3,81.3L893.3,81.3z"/>
			<path class="st20" d="M902.2,81.5c-0.2,0.4-0.5,0.5-0.7,0.9c-0.2,0.2-0.4,0.2-0.4,0.4c-0.2,0.2-0.4,0.2-0.5,0.4v-0.2
				c0.2-0.2,0.2-0.4,0.4-0.4l0.4-0.4C901.7,82,901.8,81.6,902.2,81.5L902.2,81.5z"/>
			<path class="st20" d="M901,83.4c0.2-0.2,0.4-0.4,0.5-0.4s0.2-0.2,0.4-0.2h0.4v0.2l-0.2,0.2c-0.1,0.1-0.2,0.2-0.4,0.2
				c-0.1,0.1-0.3,0.2-0.5,0.2L901,83.4z"/>
			<path class="st20" d="M894.3,83.6c-0.2,0-0.4-0.2-0.5-0.2c-0.1,0-0.2-0.1-0.2-0.2l0,0c-0.1,0-0.2-0.1-0.2-0.2l0,0v-0.2h0.4
				c0.2,0,0.2,0,0.4,0.2c0.2,0.2,0.4,0.2,0.5,0.4L894.3,83.6z"/>
			<path class="st21" d="M883.3,103.4c2.5-0.4,5-0.5,7.5-0.9c0.4-0.1,0.7-0.3,0.9-0.7l2.7-5.2l3,0.7l-2.3,5.9
				c-0.6,1.5-1.8,2.6-3.4,3l-4.3,1.2c0,0-0.4,3.4,2.1,10.2c0,0.5-2.3,1.3-4.3,1.1C884.4,118,884,116.1,883.3,103.4z"/>
			<path class="st21" d="M880.6,103.8c-1.8,0-3.6,0.1-5.4,0.4c-1,0.2-1.8,0.7-2.5,1.4c-1.3,1.5-2.5,3.1-3.5,4.8
				c-0.4,0.7-0.3,1.5,0.2,2.1l3.7,4.1l2.3-2.5l-2.7-3l3-3.8c0.3-0.2,0.6-0.2,0.9,0c0.2,0.4,0.2,5-1.4,11.6c0.7,0.5,4.1,0.9,5,0.2
				C880.4,119.1,882,110.7,880.6,103.8z"/>
			<path class="st15" d="M884.2,98.6L884.2,98.6c-1.1,0.9-2-0.7-2.7-0.9c-0.5-0.2-1.4,0.4-2,0c-0.3,0.9-0.4,1.9-0.2,2.8l-1.1-1.4
				l-0.2-1.6l1.1-0.9l2-0.7l2.1,0.4l0.4,1.3L884.2,98.6z"/>
			<path class="st10" d="M879.4,99.5c-0.5,0-0.9,0.2-0.9,0.7s0.5,1.4,1.2,0.7L879.4,99.5z"/>
		</g>
	</g>
	
		<linearGradient id="SVGID_10_" gradientUnits="userSpaceOnUse" x1="738.9551" y1="-3772.1084" x2="745.476" y2="-3772.1084" gradientTransform="matrix(1 0 0 -1 0 -3586.6802)">
		<stop  offset="0" style="stop-color:#364F87;stop-opacity:0"/>
		<stop  offset="1" style="stop-color:#000000"/>
	</linearGradient>
	<path class="st22" d="M745.6,180.4c0,0,0.7,8.5,0.4,14.2c-3.2-0.4-6.4-1-9.5-1.8l4.5-16.5c0.1,0.8,0.5,1.6,1.3,2
		C743.3,179,745.3,180.2,745.6,180.4z"/>
</g>
</svg>
