<svg width="865" height="1875" viewBox="0 0 865 1875" fill="none" xmlns="http://www.w3.org/2000/svg">
<g clip-path="url(#clip0)">
<rect width="865" height="1875" fill="white"/>
<rect x="-22" y="-28" width="918" height="1931" fill="#232323"/>
<path d="M-1177 2165L527.779 1688.84L529.4 1495.45L810.038 1483L875 1500.93V2165H-1177Z" fill="#191919"/>
<path d="M816.138 1213.2H488.338V1541H816.138V1213.2Z" fill="url(#paint0_linear)"/>
<path d="M484.527 1198.69V1548.09H827.65V1198.69H484.527ZM803.317 1519.64H505.664V1224.52H803.394L803.317 1519.64Z" fill="#46565C"/>
<path d="M475.248 1195.45V1549.01H828.073V1195.45H475.248ZM806.821 1523.25H502.237V1221.1H807.129L806.821 1523.25Z" fill="white"/>
<path d="M722.156 1430.43H660.516V1442.48H722.156V1430.43Z" fill="#D8D8D8"/>
<path d="M720.077 1421.5L722.118 1430.43H660.516L664.25 1421.5H720.077Z" fill="white"/>
<path d="M661.517 1461.42H584.707V1475.55H661.517V1461.42Z" fill="#D8D8D8"/>
<path d="M659.13 1452.14L661.517 1461.42H584.707L588.519 1452.14H659.13Z" fill="white"/>
<path d="M493.112 1519.98H588.518L588.865 1501.39H493.112V1519.98Z" fill="#D8D8D8"/>
<path d="M585.4 1491.07L588.865 1501.39H493.112L495.884 1491.38L585.4 1491.07Z" fill="white"/>
<path d="M384 1568.53H495.577L496.578 1547.47H385.001L384 1568.53Z" fill="#D8D8D8"/>
<path d="M489.339 1538.19L496.578 1547.47H385.001L393.972 1538.19H489.339Z" fill="white"/>
<path d="M776.174 1405.33H721.425V1417.38H776.174V1405.33Z" fill="#D8D8D8"/>
<path d="M770.668 1399.47L776.212 1405.33H721.425L727.97 1399.47H770.668Z" fill="white"/>
<path d="M437.747 1195.26H421.192V1549.24H437.747V1195.26Z" fill="white"/>
<path d="M442.521 1206.97V1538.19L479.367 1519.29L480.753 1216.59L442.521 1206.97Z" fill="url(#paint1_radial)"/>
<path d="M859.182 1206.97V1538.19L822.336 1519.29L821.297 1216.59L859.182 1206.97Z" fill="url(#paint2_radial)"/>
<path d="M437.824 1195.45V1549.44L488.531 1523.25V1211.39L437.824 1195.45ZM478.366 1514.48L448.605 1529.61V1211.93L478.212 1221.25L478.366 1514.48Z" fill="white"/>
<path d="M442.521 1296.17L483.487 1296.83V1308.19L444.947 1310.61L442.521 1296.17Z" fill="white"/>
<path d="M813.943 1211.43V1523.29L864.573 1549.44V1195.45L813.943 1211.43ZM854.254 1529.57L824.608 1514.44V1221.44L854.254 1212.13V1529.57Z" fill="white"/>
<path d="M862.609 1296.17L821.99 1296.83V1308.19L860.53 1310.61L862.609 1296.17Z" fill="white"/>
<path d="M549.286 1322.51C549.361 1322.51 549.434 1322.53 549.491 1322.58C549.548 1322.63 549.584 1322.7 549.594 1322.78C549.594 1322.78 549.594 1322.78 549.594 1322.78C550.628 1326.68 552.251 1330.41 554.406 1333.83C554.712 1334.14 554.938 1334.51 555.065 1334.93C555.193 1335.35 555.218 1335.79 555.138 1336.21C554.753 1337.68 554.753 1339.22 555.138 1340.68C555.831 1342.76 558.565 1345.95 557.525 1350C556.485 1354.04 558.911 1361.55 558.603 1362.74C558.295 1363.93 559.604 1368.94 550.903 1368.59C550.725 1368.59 550.555 1368.66 550.426 1368.78C550.297 1368.9 550.22 1369.07 550.21 1369.25L549.209 1376.1C549.192 1376.28 549.113 1376.45 548.987 1376.57C548.86 1376.7 548.694 1376.78 548.516 1376.79L525.415 1377.83C525.234 1377.82 525.063 1377.75 524.935 1377.62C524.807 1377.49 524.731 1377.32 524.722 1377.14V1377.14L521.295 1336.02V1335.79C521.719 1334.06 527.918 1316.12 549.286 1322.51Z" fill="#F9B384"/>
<path d="M631.909 1454.18C631.563 1453.84 631.909 1453.49 632.217 1453.14C635.51 1451.11 638.237 1448.27 640.148 1444.9C641.149 1441.86 640.148 1433.85 642.536 1430.43C645.209 1426.94 647.303 1423.04 648.734 1418.88C649.427 1415.84 653.239 1418.18 649.774 1424.42V1424.73C649.774 1425.77 649.427 1426.46 649.427 1427.39C649.406 1427.75 649.53 1428.11 649.774 1428.39C650.12 1428.39 650.467 1428.39 650.467 1428.04C655.741 1422.19 665.867 1411.52 668.023 1413.26C670.179 1414.99 662.21 1424.31 658.398 1428.66C658.216 1428.74 658.074 1428.89 658.003 1429.08C657.931 1429.27 657.934 1429.47 658.013 1429.66C658.097 1429.84 658.248 1429.98 658.435 1430.05C658.622 1430.13 658.83 1430.12 659.014 1430.04C659.107 1430 659.186 1429.93 659.245 1429.85C660.285 1429.5 660.939 1429.2 662.017 1428.85C666.83 1428.85 669.255 1440.9 665.444 1444.64C662.364 1447.68 644.114 1462.85 640.649 1465.97C640.522 1466.08 640.357 1466.14 640.187 1466.14C640.016 1466.14 639.852 1466.08 639.725 1465.97V1465.97L631.909 1454.18Z" fill="url(#paint3_linear)"/>
<path d="M559.604 1779.6L559.258 1794.38C559.258 1794.73 559.258 1794.73 559.604 1795.07C562.751 1797.35 566.581 1798.5 570.464 1798.32C574.347 1798.14 578.052 1796.64 580.972 1794.07L581.28 1793.73L581.627 1791.65C581.645 1791.47 581.725 1791.31 581.852 1791.19C581.979 1791.07 582.145 1791 582.32 1790.99V1790.99C584.65 1791.25 587.009 1790.98 589.217 1790.19C591.426 1789.41 593.426 1788.13 595.064 1786.45C597.186 1784.2 598.711 1781.45 599.498 1778.46C600.284 1775.46 600.309 1772.32 599.568 1769.32C599.295 1768.71 598.799 1768.22 598.182 1767.97C596.103 1767.62 587.171 1766.24 581.28 1770.36C574.662 1774.12 567.448 1776.73 559.951 1778.06C559.9 1778.58 559.783 1779.1 559.604 1779.6Z" fill="black"/>
<path d="M488.53 1786.1L488.184 1800.93C488.184 1801.27 488.184 1801.27 488.53 1801.62C491.671 1803.9 495.494 1805.04 499.371 1804.86C503.247 1804.68 506.946 1803.18 509.86 1800.62L510.207 1800.27L510.553 1798.19C510.577 1798.02 510.658 1797.85 510.783 1797.73C510.908 1797.6 511.071 1797.52 511.246 1797.5V1797.5C513.57 1797.77 515.926 1797.51 518.134 1796.74C520.342 1795.96 522.345 1794.7 523.99 1793.03C526.11 1790.78 527.632 1788.03 528.419 1785.04C529.206 1782.05 529.232 1778.91 528.495 1775.9C528.223 1775.28 527.728 1774.79 527.109 1774.51C525.03 1774.21 516.059 1772.82 510.207 1776.98C503.582 1780.73 496.37 1783.33 488.877 1784.68C489.031 1785.45 489.031 1785.76 488.53 1786.1Z" fill="black"/>
<path d="M495.384 1522.72C494.691 1525.37 487.684 1558.18 488.531 1647.34C488.531 1648.73 486.798 1765.81 489.57 1788.53C489.579 1788.71 489.655 1788.88 489.783 1789.01C489.911 1789.14 490.082 1789.21 490.263 1789.22C493.69 1789.91 503.931 1792.34 513.903 1780.64C513.877 1780.54 513.887 1780.45 513.929 1780.36C513.972 1780.27 514.045 1780.21 514.134 1780.17V1780.17C514.827 1773.32 532.73 1626.63 537.581 1590.9C537.581 1590.72 537.654 1590.54 537.784 1590.41C537.914 1590.28 538.09 1590.21 538.274 1590.21C538.451 1590.22 538.618 1590.3 538.74 1590.42C538.861 1590.55 538.929 1590.72 538.929 1590.9C542.009 1621.16 560.297 1760.31 560.643 1781.98C560.653 1782.15 560.725 1782.31 560.845 1782.44C560.966 1782.56 561.127 1782.63 561.298 1782.64C565.148 1783.37 572.348 1785.06 583.321 1774.94V1774.59C583.321 1768.74 595.102 1585.28 587.171 1554.9C579.933 1525.99 585.13 1537.77 575.62 1516.4C575.62 1516.05 575.274 1516.05 574.927 1516.05C569.46 1515.71 508.474 1510.55 495.384 1522.91V1522.72Z" fill="#375B9E"/>
<path opacity="0.31" d="M490.417 1560.6L578.97 1554.48C584.476 1554.13 586.67 1553.79 587.941 1559.72L588.942 1566.95C589.289 1567.96 589.982 1585.55 589.982 1586.9L590.328 1605.53L488.569 1605.84L489.262 1579.58L490.417 1560.6Z" fill="url(#paint4_linear)"/>
<path d="M524.145 1376.72C523.452 1376.72 518.87 1376.72 518.254 1378.76L515.52 1384.11C515.52 1384.2 515.484 1384.29 515.419 1384.36C515.354 1384.42 515.266 1384.46 515.174 1384.46V1384.46C511.747 1385.15 484.373 1389.96 480.523 1392.35C464.737 1401.28 434.052 1470.16 442.021 1477.75C455.458 1490.1 487.491 1493.92 493.421 1494.3C494.229 1493.99 495.076 1493.61 495.846 1493.22L492.42 1467.74C491.72 1467.81 491.015 1467.69 490.379 1467.39C487.289 1466.03 484.389 1464.27 481.755 1462.15C480.836 1461.65 480.103 1460.87 479.666 1459.92C479.229 1458.97 479.111 1457.9 479.329 1456.88C479.329 1456.53 479.329 1456.53 479.676 1456.18L484.18 1445.56C484.203 1445.47 484.241 1445.4 484.294 1445.33C484.347 1445.26 484.413 1445.2 484.488 1445.16C484.563 1445.12 484.646 1445.09 484.732 1445.08C484.818 1445.07 484.905 1445.07 484.989 1445.1H485.181C485.222 1445.09 485.263 1445.09 485.302 1445.1C485.342 1445.12 485.379 1445.13 485.411 1445.16C485.443 1445.18 485.47 1445.21 485.49 1445.25C485.51 1445.29 485.523 1445.33 485.528 1445.37C488.954 1453.95 491.727 1508.01 485.181 1571.03C484.983 1571.68 485.012 1572.37 485.265 1572.99C485.517 1573.62 485.977 1574.14 486.567 1574.46C496.578 1580.31 537.197 1591.56 589.866 1571.69C591.158 1570.89 592.093 1569.63 592.48 1568.16C592.867 1566.69 592.675 1565.13 591.945 1563.8C586.709 1540.39 579.201 1481.6 581.974 1440.9L577.469 1457.03C577.469 1457.03 578.508 1461.5 578.508 1461.88C578.855 1464.27 586.209 1501.15 592.638 1506.43C611.889 1521.83 618.781 1496.77 650.121 1466.12C650.382 1465.87 650.589 1465.57 650.731 1465.24C650.873 1464.91 650.947 1464.55 650.947 1464.19C650.947 1463.83 650.873 1463.48 650.731 1463.15C650.589 1462.81 650.382 1462.52 650.121 1462.27H649.697C644.805 1458.24 640.306 1453.75 636.26 1448.87C636.087 1448.64 635.868 1448.44 635.617 1448.3C635.367 1448.15 635.09 1448.06 634.802 1448.02C634.515 1447.99 634.223 1448.01 633.944 1448.09C633.665 1448.17 633.406 1448.3 633.18 1448.48L632.834 1448.83L614.623 1470.85C614.502 1470.96 614.344 1471.03 614.18 1471.03C614.016 1471.03 613.858 1470.96 613.737 1470.85V1470.85L613.391 1470.51C612.313 1461.19 606.845 1415.68 596.488 1400.94C593.716 1397.09 574.119 1391.31 570.654 1389.92C563.801 1386.81 556.563 1384.42 554.445 1376.8C554.286 1376.29 553.974 1375.85 553.553 1375.54C553.132 1375.22 552.623 1375.04 552.096 1375.02C542.746 1374.63 533.379 1375.2 524.145 1376.72V1376.72Z" fill="#3F68B3"/>
<path d="M514.519 1317.85C513.479 1318.85 506.241 1322.66 504.239 1328.51C504.239 1328.51 494.614 1337.45 504.239 1356.39C508.008 1362.46 513.053 1367.64 519.024 1371.56C519.024 1371.56 521.103 1377.06 522.142 1376.83C523.836 1376.45 541.393 1375.76 542.702 1374.18C544.011 1372.6 546.552 1357.66 545.436 1356.62C544.045 1354.75 543.055 1352.62 542.525 1350.36C541.995 1348.09 541.937 1345.74 542.355 1343.45C542.669 1342.85 543.188 1342.39 543.817 1342.14C544.447 1341.89 545.144 1341.88 545.782 1342.11C545.86 1342.11 545.936 1342.14 545.997 1342.19C546.059 1342.23 546.105 1342.3 546.129 1342.37V1342.37C546.249 1342.49 546.407 1342.55 546.571 1342.55C546.735 1342.55 546.893 1342.49 547.014 1342.37V1342.37V1342.03C547.12 1340.05 547.364 1338.08 547.746 1336.14C548.054 1335.44 554.56 1330.86 555.985 1327.17C556.909 1324.02 556.909 1320.68 555.985 1317.54C551.711 1302.8 533.077 1311.19 532.884 1311.19C526.302 1311.84 519.989 1314.13 514.519 1317.85V1317.85Z" fill="#16120F"/>
<path d="M515.173 1383.61C515.173 1383.61 554.06 1384.3 564.07 1386.69C564.07 1386.69 555.484 1378.99 551.711 1374.33C551.711 1374.33 551.711 1373.29 539.275 1374.68C521.719 1377.06 517.907 1374.33 515.173 1383.61Z" fill="#254A8F"/>
<path d="M740.175 1392.2L739.174 1395.31C739.596 1396.06 740.283 1396.61 741.097 1396.87C741.911 1397.12 742.791 1397.06 743.563 1396.7C743.883 1396.5 744.18 1396.27 744.449 1396.01L745.142 1392.58L740.175 1392.2Z" fill="#F9B384"/>
<path d="M739.328 1395.31L737.557 1401.59C737.21 1402.98 738.596 1405.02 739.289 1405.02C739.977 1404.95 740.641 1404.74 741.234 1404.39C741.827 1404.03 742.334 1403.55 742.716 1402.98L744.102 1396.39C741.753 1397.7 740.714 1396.7 739.328 1395.31Z" fill="black"/>
<path d="M752.765 1391.19L753.111 1394.62C753.804 1396.35 757.231 1397.7 758.347 1395.31L757.693 1390.5L752.765 1391.19Z" fill="#F9B384"/>
<path d="M752.765 1399.51C752.742 1399.62 752.742 1399.73 752.763 1399.84C752.784 1399.94 752.826 1400.04 752.887 1400.13C752.948 1400.22 753.027 1400.3 753.118 1400.36C753.21 1400.42 753.312 1400.46 753.419 1400.48H763.776C763.776 1399.78 763.43 1399.47 763.083 1398.78C761.42 1397.59 759.655 1396.54 757.808 1395.66C757.115 1396.7 754.728 1396.7 752.572 1394.97L752.765 1399.51Z" fill="black"/>
<path d="M734.939 1341.26C736.679 1342.73 738.862 1343.57 741.137 1343.64C742.523 1343.34 741.83 1339.53 741.83 1339.53L736.594 1338.14L734.939 1341.26Z" fill="#F9B384"/>
<path d="M755.19 1308.53C753.111 1310.27 751.34 1307.19 749.954 1306.84C748.568 1306.49 747.182 1307.49 746.104 1306.84C745.758 1308.65 745.641 1310.5 745.758 1312.35C739.212 1309.92 743.024 1303.37 744.718 1304.07C746.104 1299.56 750.224 1301.68 751.956 1302.33C756.884 1300.6 757.577 1307.11 755.19 1308.53Z" fill="#16120F"/>
<path d="M775.481 1305.8C775.481 1305.14 775.827 1304.07 775.827 1303.37C776.095 1302.87 776.447 1302.41 776.867 1302.03C778.537 1301.32 780.33 1300.96 782.142 1300.95C783.181 1300.95 785.568 1300.6 786.608 1301.68C787.647 1302.76 785.915 1303.03 785.26 1303.03C783.911 1303.05 782.588 1303.41 781.41 1304.07C780.891 1304.41 780.463 1304.87 780.161 1305.41C779.859 1305.96 779.693 1306.56 779.678 1307.19L775.481 1305.8Z" fill="#F9B384"/>
<path d="M761.389 1338.49L758.963 1392.89H752.11L752.457 1362.28L745.911 1393.23H738.635L744.525 1337.18L761.389 1338.49Z" fill="#173068"/>
<path d="M761.389 1342.3C761.043 1342.3 761.043 1342.64 760.696 1342.64C758.801 1343.4 756.843 1343.98 754.844 1344.38C753.112 1344.65 751.36 1344.76 749.608 1344.72C747.69 1344.61 745.809 1344.14 744.064 1343.34V1341.76L745.796 1319.74L757.347 1319.35L761.389 1342.3Z" fill="white"/>
<path d="M750.724 1320.97C750.108 1320.98 749.512 1320.75 749.065 1320.32C748.619 1319.9 748.357 1319.31 748.337 1318.7V1318.7L747.875 1313.42H753.111L753.458 1318.66C753.433 1319 753.341 1319.34 753.187 1319.65C753.032 1319.95 752.818 1320.23 752.557 1320.46C752.295 1320.68 751.992 1320.85 751.665 1320.96C751.337 1321.07 750.991 1321.11 750.647 1321.08L750.724 1320.97Z" fill="#F9B384"/>
<path d="M748.299 1315.08C749.338 1316.81 750.917 1318.5 753.573 1315.08H748.299Z" fill="#E6A57A"/>
<path d="M754.497 1312.34C754.502 1312.86 754.377 1313.37 754.135 1313.83C753.893 1314.29 753.541 1314.68 753.111 1314.96C752.17 1315.65 750.995 1315.94 749.841 1315.77C748.688 1315.59 747.649 1314.97 746.951 1314.04V1314.04V1313.69C745.874 1311.43 745.409 1308.92 745.604 1306.42L749.454 1304.72L753.612 1305.11L754.305 1306.76C754.574 1307.88 754.691 1309.04 754.651 1310.19L754.497 1312.34Z" fill="#F9B384"/>
<path d="M782.411 1283.74H780.332V1298.52H782.411V1283.74Z" fill="#BB9132"/>
<path d="M785.452 1286.47L786.145 1292.36L781.333 1289.59L776.212 1292.36L776.905 1288.24V1286.47L773.093 1282.39L778.561 1281.7L781.333 1276.54L783.797 1281.7H785.106L789.61 1282.39L785.452 1286.47Z" fill="#FBC343"/>
<path d="M786.145 1299.91H776.289V1299.41L776.943 1295.98C776.943 1295.63 777.29 1295.29 777.944 1295.29H784.528C784.836 1295.29 785.183 1295.63 785.529 1295.98L786.145 1299.91Z" fill="#FBC343"/>
<path d="M787.223 1300.99H775.481C775.212 1300.98 774.957 1300.86 774.77 1300.67C774.583 1300.48 774.479 1300.22 774.479 1299.95V1299.95C774.497 1299.69 774.609 1299.44 774.793 1299.26C774.977 1299.08 775.221 1298.96 775.481 1298.95H787.223C787.483 1298.96 787.727 1299.08 787.911 1299.26C788.095 1299.44 788.206 1299.69 788.224 1299.95C788.216 1300.21 788.108 1300.47 787.924 1300.66C787.739 1300.85 787.489 1300.97 787.223 1300.99V1300.99Z" fill="#BB9132"/>
<path d="M772.863 1275.15C773.517 1275.49 774.094 1275.96 774.557 1276.54C774.903 1276.88 775.25 1276.88 775.25 1277.19C775.259 1277.37 775.335 1277.54 775.463 1277.67C775.591 1277.8 775.762 1277.88 775.943 1277.89V1278.23C775.596 1277.89 775.25 1277.89 774.903 1277.54C774.557 1277.19 774.21 1277.19 774.21 1276.88C773.603 1276.45 773.134 1275.85 772.863 1275.15Z" fill="#FBC343"/>
<path d="M789.996 1275.38C789.649 1276.08 788.956 1276.42 788.61 1277.12C788.263 1277.81 787.917 1277.46 787.917 1277.81C787.917 1278.16 787.224 1278.12 786.916 1278.46V1278.12C787.224 1277.81 787.224 1277.46 787.57 1277.46L788.263 1276.77C788.918 1276.31 789.264 1275.73 789.996 1275.38Z" fill="#FBC343"/>
<path d="M787.531 1279.27C787.878 1278.93 788.186 1278.58 788.532 1278.58C788.879 1278.58 788.879 1278.23 789.225 1278.23H789.918V1278.58L789.572 1278.93C789.386 1279.11 789.142 1279.24 788.879 1279.27C788.748 1279.4 788.59 1279.5 788.417 1279.56C788.244 1279.62 788.06 1279.64 787.878 1279.62L787.531 1279.27Z" fill="#FBC343"/>
<path d="M774.826 1279.62C774.479 1279.62 774.133 1279.27 773.786 1279.27C773.746 1279.28 773.705 1279.27 773.665 1279.26C773.626 1279.25 773.589 1279.23 773.557 1279.21C773.525 1279.18 773.498 1279.15 773.477 1279.12C773.457 1279.08 773.445 1279.04 773.44 1279V1279C773.362 1279 773.286 1278.97 773.224 1278.92C773.163 1278.87 773.117 1278.81 773.093 1278.73V1278.23H773.786C774.133 1278.23 774.133 1278.23 774.479 1278.58C774.826 1278.93 775.134 1278.93 775.481 1279.27L774.826 1279.62Z" fill="#FBC343"/>
<path d="M753.381 1317.85C758.155 1317.16 763.006 1316.81 767.819 1316.12C768.191 1316.05 768.541 1315.89 768.837 1315.66C769.132 1315.42 769.365 1315.12 769.513 1314.77L774.826 1304.76L780.678 1306.15L776.289 1317.7C775.734 1319.12 774.847 1320.4 773.703 1321.42C772.558 1322.43 771.188 1323.16 769.705 1323.55L761.466 1325.94C761.481 1332.69 762.883 1339.38 765.586 1345.57C765.586 1346.61 761.12 1347.96 757.308 1347.61C755.575 1346.07 754.844 1342.3 753.381 1317.85Z" fill="#1F3C88"/>
<path d="M748.298 1318.66C744.862 1318.72 741.432 1318.95 738.019 1319.35C736.176 1319.81 734.496 1320.77 733.168 1322.12C730.693 1325.07 728.404 1328.17 726.314 1331.4C725.906 1332.04 725.719 1332.79 725.782 1333.54C725.844 1334.29 726.153 1335 726.661 1335.56L733.861 1343.45L738.365 1338.64L733.091 1332.75L738.943 1325.51C739.2 1325.34 739.501 1325.25 739.809 1325.25C740.117 1325.25 740.418 1325.34 740.675 1325.51C740.932 1333.08 739.997 1340.64 737.903 1347.92C740.967 1349.25 744.417 1349.37 747.567 1348.27C749.715 1338.54 749.963 1328.48 748.298 1318.66Z" fill="#1F3C88"/>
<path d="M755.19 1308.53C753.111 1310.27 751.34 1307.19 749.954 1306.84C748.568 1306.49 747.182 1307.49 746.104 1306.84C745.491 1308.61 745.371 1310.51 745.758 1312.35L743.717 1309.57L743.371 1306.49L745.411 1304.76L749.261 1303.37L753.381 1304.07L754.035 1306.49L755.19 1308.53Z" fill="#16120F"/>
<path d="M745.912 1310.27C744.872 1310.27 744.179 1310.61 744.179 1311.65C744.179 1312.69 745.219 1314.27 746.566 1313.04L745.912 1310.27Z" fill="#F9B384"/>
</g>
<defs>
<linearGradient id="paint0_linear" x1="488.338" y1="1213.2" x2="816.138" y2="1540.97" gradientUnits="userSpaceOnUse">
<stop stop-color="#E0F6FF"/>
<stop offset="0.3" stop-color="#6AD2FC"/>
<stop offset="0.48" stop-color="#5AC8F5"/>
<stop offset="0.74" stop-color="#40B8E9"/>
<stop offset="0.94" stop-color="#1CA1D8"/>
<stop offset="1" stop-color="#139BD4"/>
</linearGradient>
<radialGradient id="paint1_radial" cx="0" cy="0" r="1" gradientUnits="userSpaceOnUse" gradientTransform="translate(481.908 1223.95) scale(316.75 316.75)">
<stop stop-color="#70B5FF"/>
<stop offset="0.25" stop-color="#70B6FF" stop-opacity="0.94"/>
<stop offset="0.73" stop-color="#70BAFF" stop-opacity="0.79"/>
<stop offset="1" stop-color="#70BCFF" stop-opacity="0.7"/>
</radialGradient>
<radialGradient id="paint2_radial" cx="0" cy="0" r="1" gradientUnits="userSpaceOnUse" gradientTransform="translate(12725.2 630448) scale(3111.14 27200.3)">
<stop stop-color="#70B5FF"/>
<stop offset="0.25" stop-color="#70B6FF" stop-opacity="0.94"/>
<stop offset="0.73" stop-color="#70BAFF" stop-opacity="0.79"/>
<stop offset="1" stop-color="#70BCFF" stop-opacity="0.7"/>
</radialGradient>
<linearGradient id="paint3_linear" x1="649.62" y1="1438.9" x2="611.85" y2="1476.59" gradientUnits="userSpaceOnUse">
<stop stop-color="#F9B384"/>
<stop offset="0.09" stop-color="#F3AF81"/>
<stop offset="0.22" stop-color="#E2A278"/>
<stop offset="0.37" stop-color="#C58E69"/>
<stop offset="0.53" stop-color="#9E7154"/>
<stop offset="0.7" stop-color="#6B4D39"/>
<stop offset="0.88" stop-color="#2E2118"/>
<stop offset="1"/>
</linearGradient>
<linearGradient id="paint4_linear" x1="539.391" y1="1605.84" x2="539.391" y2="1554.25" gradientUnits="userSpaceOnUse">
<stop stop-opacity="0"/>
<stop offset="1"/>
</linearGradient>
<clipPath id="clip0">
<rect width="865" height="1875" fill="white"/>
</clipPath>
</defs>
</svg>
